<?xml version="1.0" encoding="UTF-8" standalone="no"?>
<!-- Created with Inkscape (http://www.inkscape.org/) -->

<svg
   width="48"
   height="48"
   viewBox="0 0 12.7 12.7"
   version="1.1"
   id="svg1"
   inkscape:export-filename="logo.png"
   inkscape:export-xdpi="2048"
   inkscape:export-ydpi="2048"
   inkscape:version="1.4.3 (unknown)"
   sodipodi:docname="logo.svg"
   xmlns:inkscape="http://www.inkscape.org/namespaces/inkscape"
   xmlns:sodipodi="http://sodipodi.sourceforge.net/DTD/sodipodi-0.dtd"
   xmlns="http://www.w3.org/2000/svg"
   xmlns:svg="http://www.w3.org/2000/svg">
  <sodipodi:namedview
     id="namedview1"
     pagecolor="#ffffff"
     bordercolor="#cccccc"
     borderopacity="1"
     inkscape:showpageshadow="0"
     inkscape:pageopacity="1"
     inkscape:pagecheckerboard="0"
     inkscape:deskcolor="#d1d1d1"
     inkscape:document-units="mm"
     inkscape:zoom="9.4554298"
     inkscape:cx="29.612615"
     inkscape:cy="17.133013"
     inkscape:window-width="1600"
     inkscape:window-height="841"
     inkscape:window-x="0"
     inkscape:window-y="0"
     inkscape:window-maximized="1"
     inkscape:current-layer="g2" />
  <defs
     id="defs1" />
  <g
     inkscape:label="Layer 1"
     inkscape:groupmode="layer"
     id="layer1">
    <g
       fill="none"
       id="g2"
       transform="matrix(0.26458333,0,0,0.26458333,79.9784,86.119897)">
      <path
         id="rect1"
         style="fill:#0045b5;stroke-width:2.32876;fill-opacity:1"
         d="m -291.01944,-322.46002 h 25.52137 c 3.25163,0 5.86936,2.61773 5.86936,5.86935 v 30.17888 c 0,3.25163 -4.82548,5.86936 -5.86936,5.86936 h -25.52137 c -1.62581,0 -5.86246,-2.04541 -5.86246,-3.5235 0,-1.15414 -0.007,-0.7624 -0.007,-2.34586 v -30.17888 c 0,-3.25162 2.61773,-5.86935 5.86935,-5.86935 z"
         sodipodi:nodetypes="sssssssssss" />
      <path
         fill="currentColor"
         d="m -296.8888,-284.27079 c 0,-2.061 2.08525,-3.73177 4.65751,-3.73177 h 25.61631 c 2.1704,0 2.9258,0 3.78045,-0.2836 1.14202,-0.37878 2.1167,-1.34387 2.59965,-2.25355 0.4176,-0.78658 0.60617,-2.08001 0.60617,-3.81901 v 6.35616 c 0,2.46059 0.193,4.47746 -1.90211,6.06835 -2.09511,1.59089 -2.4528,1.39518 -7.41292,1.39518 h -23.28755 c -2.57226,0 -4.65751,-1.67077 -4.65751,-3.73176"
         id="path2"
         style="fill:#ffd700;fill-opacity:1;stroke-width:2.08451"
         sodipodi:nodetypes="csscscszssc" />
      <g
         inkscape:label="Layer 1"
         id="layer1-5"
         transform="matrix(0.01256343,0,0,0.01256343,-266.69829,-316.32841)">
        <rect
           style="display:none;fill:#003297;fill-opacity:1;fill-rule:nonzero;stroke:#003297;stroke-width:6.5331;stroke-linecap:square;stroke-linejoin:miter;stroke-miterlimit:4;stroke-dasharray:none;stroke-dashoffset:0;stroke-opacity:1"
           id="rect10857"
           width="1719.4669"
           height="1144.1335"
           x="-1740.428"
           y="-32.962372" />
        <g
           id="layer4"
           inkscape:label="Meubles"
           style="display:inline"
           transform="translate(-416.08099,191.55729)" />
        <g
           id="g2137"
           style="display:inline"
           transform="translate(-1070.4486,-120.59284)" />
        <g
           id="layer1-6"
           inkscape:label="Contour final"
           transform="translate(-416.08099,191.55729)"
           style="display:inline" />
        <g
           id="layer3"
           inkscape:label="Timbre"
           transform="translate(-464.64689,124.59718)"
           style="display:inline;fill:#ffffff;stroke:#000000;stroke-width:2;stroke-miterlimit:4;stroke-dasharray:none" />
        <g
           inkscape:label="Escudo"
           id="layer1-8"
           transform="translate(-464.64689,124.59718)"
           style="display:inline;fill:#ffffff;stroke:#000000;stroke-width:2;stroke-miterlimit:4;stroke-dasharray:none" />
        <g
           id="layer4-3"
           inkscape:label="Piezas"
           style="display:inline;fill:#ffffff;stroke:#000000;stroke-width:2;stroke-miterlimit:4;stroke-dasharray:none"
           transform="translate(-408.21817,47.956835)">
          <g
             style="fill:#ffffff;stroke:#000000;stroke-width:2;stroke-miterlimit:4;stroke-dasharray:none"
             id="g5818"
             inkscape:label="Piezas"
             transform="translate(873.00016,-55.320157)" />
          <g
             style="fill:#ffffff;stroke:#000000;stroke-width:2;stroke-miterlimit:4;stroke-dasharray:none"
             id="g5820"
             inkscape:label="Muebles"
             transform="translate(873.00016,-55.320157)" />
          <g
             style="fill:#ffffff;stroke:#000000;stroke-width:2;stroke-miterlimit:4;stroke-dasharray:none"
             id="g5822"
             inkscape:label="Ornamentos"
             transform="translate(873.00016,-55.320157)" />
        </g>
        <g
           id="layer5"
           inkscape:label="Muebles"
           style="display:inline;fill:#ffffff;stroke:#000000;stroke-width:2;stroke-miterlimit:4;stroke-dasharray:none"
           transform="translate(-408.21817,47.956835)">
          <g
             inkscape:label="Escudo"
             id="g5438"
             transform="translate(-582.73933,640.16742)"
             style="display:inline;fill:#ffffff;stroke:#000000;stroke-width:2;stroke-miterlimit:4;stroke-dasharray:none" />
          <g
             id="g5440"
             inkscape:label="Piezas"
             style="display:inline;fill:#ffffff;stroke:#000000;stroke-width:2;stroke-miterlimit:4;stroke-dasharray:none"
             transform="translate(-526.31061,563.52708)" />
          <g
             style="fill:#ffffff;stroke:#000000;stroke-width:2;stroke-miterlimit:4;stroke-dasharray:none"
             id="g5559"
             inkscape:label="Ornamento"
             transform="translate(-526.31061,563.52708)" />
          <g
             id="g5561"
             inkscape:label="Borde 3px"
             style="display:inline;fill:#ffffff;stroke:#000000;stroke-width:2;stroke-miterlimit:4;stroke-dasharray:none"
             transform="translate(-526.31061,563.52708)" />
        </g>
        <g
           id="layer6"
           inkscape:label="Ornamentos"
           style="display:inline;fill:#ffffff;stroke:#000000;stroke-width:2;stroke-miterlimit:4;stroke-dasharray:none"
           transform="translate(-408.21817,47.956835)" />
        <g
           id="g2145"
           style="fill:#ffffff;stroke:#000000;stroke-width:1.94926;stroke-miterlimit:4;stroke-dasharray:none;stroke-opacity:1"
           transform="matrix(1.02603,0,0,1.02603,422.80488,153.28676)" />
        <g
           id="g11086"
           transform="matrix(2.2340297,0,0,2.2340297,1099.0009,-406.63164)"
           style="display:inline">
          <g
             id="g11171">
            <g
               style="fill:#ffd42a;fill-opacity:1;stroke:#ffd42a;stroke-width:4.24793;stroke-miterlimit:4;stroke-dasharray:none;stroke-opacity:1"
               transform="matrix(1.1770436,0,0,1.1770436,-1958.539,102.11411)"
               id="g2917">
              <g
                 style="fill:#ffd42a;fill-opacity:1;stroke:#ffd42a;stroke-width:1.79273;stroke-miterlimit:4;stroke-dasharray:none;stroke-opacity:1"
                 id="g2827"
                 transform="matrix(2.37864,0,0,2.3604541,-1234.0932,-104.011)">
                <g
                   id="g2111"
                   style="fill:#ffd42a;fill-opacity:1;stroke:#ffd42a;stroke-width:1.74725;stroke-miterlimit:4;stroke-dasharray:none;stroke-opacity:1"
                   transform="matrix(-1.02603,0,0,1.02603,1172.8199,49.467885)">
                  <g
                     id="g2113"
                     style="fill:#ffd42a;fill-opacity:1;stroke:#ffd42a;stroke-width:1.74725;stroke-miterlimit:4;stroke-dasharray:none;stroke-opacity:1"
                     transform="translate(216.3527,15.51153)">
                    <a
                       id="a2115"
                       style="fill:#ffd42a;fill-opacity:1;stroke:#ffd42a;stroke-width:1.74725;stroke-miterlimit:4;stroke-dasharray:none;stroke-opacity:1"
                       transform="translate(0,0.746122)">
                      <path
                         inkscape:connector-curvature="0"
                         sodipodi:nodetypes="ccccccc"
                         id="path2117"
                         style="fill:#ffd42a;fill-opacity:1;fill-rule:evenodd;stroke:#ffd42a;stroke-width:1.74725;stroke-linecap:butt;stroke-linejoin:miter;stroke-miterlimit:4;stroke-dasharray:none;stroke-opacity:1"
                         d="M -0.85497357,53.194629 C 0.63347324,59.66134 3.2038095,64.685532 6.652922,68.538022 l -0.929149,3.544079 c 0,0 9.232725,2.63955 9.263813,2.608462 l 1.489278,-5.903834 C 11.590164,62.49183 5.7424276,56.773553 4.9954507,47.99482 Z" />
                    </a>
                    <path
                       inkscape:connector-curvature="0"
                       sodipodi:nodetypes="ccccc"
                       id="path2119"
                       style="fill:#ffd42a;fill-opacity:1;fill-rule:evenodd;stroke:#ffd42a;stroke-width:1.74725;stroke-linecap:butt;stroke-linejoin:miter;stroke-miterlimit:4;stroke-dasharray:none;stroke-opacity:1"
                       d="m 32.016332,58.69494 h 9.020383 c 4.666742,-4.934436 6.653735,-9.868871 8.546694,-14.803307 H 38.300934 c 0.09925,4.934436 -3.817761,9.868871 -6.284602,14.803307 z" />
                    <path
                       inkscape:connector-curvature="0"
                       sodipodi:nodetypes="ccccccc"
                       id="path2121"
                       style="fill:#ffd42a;fill-opacity:1;fill-rule:evenodd;stroke:#ffd42a;stroke-width:1.74725;stroke-linecap:butt;stroke-linejoin:miter;stroke-miterlimit:4;stroke-dasharray:none;stroke-opacity:1"
                       d="M 4.6156837,44.475584 C 2.0489229,47.300881 0.49851465,50.735989 -1,54.202234 c 4.8888646,-4.774948 14.341105,-12.853808 17.319278,-9.99929 3.476688,5.938465 8.627468,10.507219 14.491997,14.491996 h 9.369562 C 31.572873,52.127302 23.183188,45.431265 18.210894,36.724997 14.485021,35.873625 8.8897503,39.959529 4.6156837,44.475584 Z" />
                  </g>
                  <g
                     id="g2123"
                     style="fill:#ffd42a;fill-opacity:1;stroke:#ffd42a;stroke-width:1.77318;stroke-miterlimit:4;stroke-dasharray:none;stroke-opacity:1"
                     transform="matrix(0.937878,0.251304,-0.258819,0.965926,57.26451,-45.23491)">
                    <rect
                       id="rect2125"
                       style="fill:#ffd42a;fill-opacity:1;stroke:#ffd42a;stroke-width:1.77318;stroke-miterlimit:4;stroke-dasharray:none;stroke-opacity:1"
                       y="86.122467"
                       x="199.55624"
                       height="11.782799"
                       width="9.9238567" />
                    <g
                       id="g2127"
                       style="fill:#ffd42a;fill-opacity:1;stroke:#ffd42a;stroke-width:1.82911;stroke-miterlimit:4;stroke-dasharray:none;stroke-opacity:1"
                       transform="matrix(0.939783,0,0,1,4.152284,-2.016667)">
                      <path
                         inkscape:connector-curvature="0"
                         id="path2129"
                         style="fill:#ffd42a;fill-opacity:1;fill-rule:evenodd;stroke:#ffd42a;stroke-width:1.82911;stroke-linecap:butt;stroke-linejoin:miter;stroke-miterlimit:4;stroke-dasharray:none;stroke-opacity:1"
                         d="M 209.22507,99.968423 V 88.092651" />
                      <path
                         inkscape:connector-curvature="0"
                         id="path2131"
                         style="fill:#ffd42a;fill-opacity:1;fill-rule:evenodd;stroke:#ffd42a;stroke-width:1.82911;stroke-linecap:butt;stroke-linejoin:miter;stroke-miterlimit:4;stroke-dasharray:none;stroke-opacity:1"
                         d="M 210.5515,99.968423 V 88.092647" />
                      <path
                         inkscape:connector-curvature="0"
                         id="path2133"
                         style="fill:#ffd42a;fill-opacity:1;fill-rule:evenodd;stroke:#ffd42a;stroke-width:1.82911;stroke-linecap:butt;stroke-linejoin:miter;stroke-miterlimit:4;stroke-dasharray:none;stroke-opacity:1"
                         d="M 211.87795,99.968423 V 88.092647" />
                      <path
                         inkscape:connector-curvature="0"
                         id="path2135"
                         style="fill:#ffd42a;fill-opacity:1;fill-rule:evenodd;stroke:#ffd42a;stroke-width:1.82911;stroke-linecap:butt;stroke-linejoin:miter;stroke-miterlimit:4;stroke-dasharray:none;stroke-opacity:1"
                         d="M 213.20439,99.968423 V 88.092647" />
                      <path
                         inkscape:connector-curvature="0"
                         id="path2137"
                         style="fill:#ffd42a;fill-opacity:1;fill-rule:evenodd;stroke:#ffd42a;stroke-width:1.82911;stroke-linecap:butt;stroke-linejoin:miter;stroke-miterlimit:4;stroke-dasharray:none;stroke-opacity:1"
                         d="M 214.53083,99.968423 V 88.092647" />
                      <path
                         inkscape:connector-curvature="0"
                         id="path2139"
                         style="fill:#ffd42a;fill-opacity:1;fill-rule:evenodd;stroke:#ffd42a;stroke-width:1.82911;stroke-linecap:butt;stroke-linejoin:miter;stroke-miterlimit:4;stroke-dasharray:none;stroke-opacity:1"
                         d="M 215.85726,99.968423 V 88.092638" />
                      <path
                         inkscape:connector-curvature="0"
                         id="path2141"
                         style="fill:#ffd42a;fill-opacity:1;fill-rule:evenodd;stroke:#ffd42a;stroke-width:1.82911;stroke-linecap:butt;stroke-linejoin:miter;stroke-miterlimit:4;stroke-dasharray:none;stroke-opacity:1"
                         d="M 217.18371,99.968423 V 88.092638" />
                    </g>
                  </g>
                </g>
              </g>
              <g
                 style="display:inline;fill:#ffd42a;fill-opacity:1;stroke:#ffd42a;stroke-width:1.79273;stroke-miterlimit:4;stroke-dasharray:none;stroke-opacity:1"
                 id="g2845"
                 transform="matrix(-2.37864,0,0,2.3604541,3065.5369,-104.011)">
                <g
                   id="g2847"
                   style="fill:#ffd42a;fill-opacity:1;stroke:#ffd42a;stroke-width:1.74725;stroke-miterlimit:4;stroke-dasharray:none;stroke-opacity:1"
                   transform="matrix(-1.02603,0,0,1.02603,1172.8199,49.467885)">
                  <g
                     id="g2849"
                     style="fill:#ffd42a;fill-opacity:1;stroke:#ffd42a;stroke-width:1.74725;stroke-miterlimit:4;stroke-dasharray:none;stroke-opacity:1"
                     transform="translate(216.3527,15.51153)">
                    <a
                       id="a2851"
                       style="fill:#ffd42a;fill-opacity:1;stroke:#ffd42a;stroke-width:1.74725;stroke-miterlimit:4;stroke-dasharray:none;stroke-opacity:1"
                       transform="translate(0,0.746122)">
                      <path
                         inkscape:connector-curvature="0"
                         sodipodi:nodetypes="ccccccc"
                         id="path2853"
                         style="fill:#ffd42a;fill-opacity:1;fill-rule:evenodd;stroke:#ffd42a;stroke-width:1.74725;stroke-linecap:butt;stroke-linejoin:miter;stroke-miterlimit:4;stroke-dasharray:none;stroke-opacity:1"
                         d="M -0.85497357,53.194629 C 0.63347324,59.66134 3.2038095,64.685532 6.652922,68.538022 l -0.929149,3.544079 c 0,0 9.232725,2.63955 9.263813,2.608462 l 1.489278,-5.903834 C 11.590164,62.49183 5.7424276,56.773553 4.9954507,47.99482 Z" />
                    </a>
                    <path
                       inkscape:connector-curvature="0"
                       sodipodi:nodetypes="ccccc"
                       id="path2855"
                       style="fill:#ffd42a;fill-opacity:1;fill-rule:evenodd;stroke:#ffd42a;stroke-width:1.74725;stroke-linecap:butt;stroke-linejoin:miter;stroke-miterlimit:4;stroke-dasharray:none;stroke-opacity:1"
                       d="m 32.016332,58.69494 h 9.020383 c 4.666742,-4.934436 6.653735,-9.868871 8.546694,-14.803307 H 38.300934 c 0.09925,4.934436 -3.817761,9.868871 -6.284602,14.803307 z" />
                    <path
                       inkscape:connector-curvature="0"
                       sodipodi:nodetypes="ccccccc"
                       id="path2857"
                       style="fill:#ffd42a;fill-opacity:1;fill-rule:evenodd;stroke:#ffd42a;stroke-width:1.74725;stroke-linecap:butt;stroke-linejoin:miter;stroke-miterlimit:4;stroke-dasharray:none;stroke-opacity:1"
                       d="M 4.6156837,44.475584 C 2.0489229,47.300881 0.49851465,50.735989 -1,54.202234 c 4.8888646,-4.774948 14.341105,-12.853808 17.319278,-9.99929 3.476688,5.938465 8.627468,10.507219 14.491997,14.491996 h 9.369562 C 31.572873,52.127302 23.183188,45.431265 18.210894,36.724997 14.485021,35.873625 8.8897503,39.959529 4.6156837,44.475584 Z" />
                  </g>
                  <g
                     id="g2859"
                     style="fill:#ffd42a;fill-opacity:1;stroke:#ffd42a;stroke-width:1.77318;stroke-miterlimit:4;stroke-dasharray:none;stroke-opacity:1"
                     transform="matrix(0.937878,0.251304,-0.258819,0.965926,57.26451,-45.23491)">
                    <rect
                       id="rect2861"
                       style="fill:#ffd42a;fill-opacity:1;stroke:#ffd42a;stroke-width:1.77318;stroke-miterlimit:4;stroke-dasharray:none;stroke-opacity:1"
                       y="86.122467"
                       x="199.55624"
                       height="11.782799"
                       width="9.9238567" />
                    <g
                       id="g2863"
                       style="fill:#ffd42a;fill-opacity:1;stroke:#ffd42a;stroke-width:1.82911;stroke-miterlimit:4;stroke-dasharray:none;stroke-opacity:1"
                       transform="matrix(0.939783,0,0,1,4.152284,-2.016667)">
                      <path
                         inkscape:connector-curvature="0"
                         id="path2865"
                         style="fill:#ffd42a;fill-opacity:1;fill-rule:evenodd;stroke:#ffd42a;stroke-width:1.82911;stroke-linecap:butt;stroke-linejoin:miter;stroke-miterlimit:4;stroke-dasharray:none;stroke-opacity:1"
                         d="M 209.22507,99.968423 V 88.092651" />
                      <path
                         inkscape:connector-curvature="0"
                         id="path2867"
                         style="fill:#ffd42a;fill-opacity:1;fill-rule:evenodd;stroke:#ffd42a;stroke-width:1.82911;stroke-linecap:butt;stroke-linejoin:miter;stroke-miterlimit:4;stroke-dasharray:none;stroke-opacity:1"
                         d="M 210.5515,99.968423 V 88.092647" />
                      <path
                         inkscape:connector-curvature="0"
                         id="path2869"
                         style="fill:#ffd42a;fill-opacity:1;fill-rule:evenodd;stroke:#ffd42a;stroke-width:1.82911;stroke-linecap:butt;stroke-linejoin:miter;stroke-miterlimit:4;stroke-dasharray:none;stroke-opacity:1"
                         d="M 211.87795,99.968423 V 88.092647" />
                      <path
                         inkscape:connector-curvature="0"
                         id="path2871"
                         style="fill:#ffd42a;fill-opacity:1;fill-rule:evenodd;stroke:#ffd42a;stroke-width:1.82911;stroke-linecap:butt;stroke-linejoin:miter;stroke-miterlimit:4;stroke-dasharray:none;stroke-opacity:1"
                         d="M 213.20439,99.968423 V 88.092647" />
                      <path
                         inkscape:connector-curvature="0"
                         id="path2873"
                         style="fill:#ffd42a;fill-opacity:1;fill-rule:evenodd;stroke:#ffd42a;stroke-width:1.82911;stroke-linecap:butt;stroke-linejoin:miter;stroke-miterlimit:4;stroke-dasharray:none;stroke-opacity:1"
                         d="M 214.53083,99.968423 V 88.092647" />
                      <path
                         inkscape:connector-curvature="0"
                         id="path2875"
                         style="fill:#ffd42a;fill-opacity:1;fill-rule:evenodd;stroke:#ffd42a;stroke-width:1.82911;stroke-linecap:butt;stroke-linejoin:miter;stroke-miterlimit:4;stroke-dasharray:none;stroke-opacity:1"
                         d="M 215.85726,99.968423 V 88.092638" />
                      <path
                         inkscape:connector-curvature="0"
                         id="path2877"
                         style="fill:#ffd42a;fill-opacity:1;fill-rule:evenodd;stroke:#ffd42a;stroke-width:1.82911;stroke-linecap:butt;stroke-linejoin:miter;stroke-miterlimit:4;stroke-dasharray:none;stroke-opacity:1"
                         d="M 217.18371,99.968423 V 88.092638" />
                    </g>
                  </g>
                </g>
              </g>
            </g>
            <circle
               style="fill:#0045b5;fill-opacity:1;fill-rule:nonzero;stroke:#ffd700;stroke-width:9.42624;stroke-linecap:square;stroke-linejoin:miter;stroke-miterlimit:4;stroke-dasharray:none;stroke-dashoffset:0;stroke-opacity:1"
               id="path2985"
               transform="translate(-1309.2659,3.89544)"
               cx="428.57144"
               cy="586.64789"
               r="271.42856" />
            <g
               id="g10852"
               style="fill:#ffd700;fill-opacity:1;stroke:#ffd700;stroke-width:6.73303;stroke-dasharray:none;stroke-opacity:1"
               transform="translate(-1246.4088,78.181154)">
              <path
                 transform="matrix(2.0311523,0.54467821,-0.54467821,2.0311523,1467.5554,68.65904)"
                 d="m -339.39723,404.18636 -68.26434,-26.2987 34.984,64.24766 -53.00395,-50.42046 7.73448,72.74489 -29.67419,-66.86617 -20.69254,70.16738 -1.8268,-73.1321 -45.96931,56.90751 26.2987,-68.26434 -64.24766,34.98399 50.42046,-53.00395 -72.74489,7.73448 66.86616,-29.67419 -70.16737,-20.69254 73.1321,-1.8268 -56.90751,-45.96931 68.26434,26.2987 -34.98399,-64.24766 53.00395,50.42046 -7.73448,-72.74489 29.67419,66.86617 20.69254,-70.16738 1.8268,73.1321 45.9693,-56.90751 -26.2987,68.26434 64.24766,-34.98399 -50.42046,53.00395 72.7449,-7.73448 -66.86617,29.67419 70.16738,20.69254 -73.13211,1.8268 z"
                 inkscape:randomized="0"
                 inkscape:rounded="0"
                 inkscape:flatsided="false"
                 sodipodi:arg2="0.71994832"
                 sodipodi:arg1="0.52359878"
                 sodipodi:r2="58.213188"
                 sodipodi:r1="129.36264"
                 sodipodi:cy="339.50504"
                 sodipodi:cx="-451.42856"
                 sodipodi:sides="16"
                 id="path9796"
                 style="fill:#ffd700;fill-opacity:1;stroke:#ffd700;stroke-width:3.20176;stroke-linecap:square;stroke-linejoin:miter;stroke-miterlimit:4;stroke-dasharray:none;stroke-dashoffset:0;stroke-opacity:1"
                 sodipodi:type="star" />
              <path
                 transform="matrix(0.28230412,1.0535733,-1.0535733,0.28230412,869.11752,809.80428)"
                 d="M -229.49351,640.85297 -393.17744,413.73519 -648.49078,528.58296 -421.373,364.89904 -536.22078,109.58569 -372.53685,336.70347 -117.22351,221.8557 -344.34129,385.53962 Z"
                 inkscape:randomized="0"
                 inkscape:rounded="0"
                 inkscape:flatsided="false"
                 sodipodi:arg2="1.8325957"
                 sodipodi:arg1="1.0471976"
                 sodipodi:r2="39.87455"
                 sodipodi:r1="306.72729"
                 sodipodi:cy="375.21933"
                 sodipodi:cx="-382.85715"
                 sodipodi:sides="4"
                 id="path9798-0"
                 style="fill:#ffd700;fill-opacity:1;stroke:#ffd700;stroke-width:6.1729;stroke-linecap:square;stroke-linejoin:miter;stroke-miterlimit:4;stroke-dasharray:none;stroke-dashoffset:0;stroke-opacity:1"
                 sodipodi:type="star" />
              <path
                 transform="matrix(0.99641623,0.57528115,-0.57528115,0.99641623,963.05598,358.73804)"
                 d="M -229.49351,640.85297 -393.17744,413.73519 -648.49078,528.58296 -421.373,364.89904 -536.22078,109.58569 -372.53685,336.70347 -117.22351,221.8557 -344.34129,385.53962 Z"
                 inkscape:randomized="0"
                 inkscape:rounded="0"
                 inkscape:flatsided="false"
                 sodipodi:arg2="1.8325957"
                 sodipodi:arg1="1.0471976"
                 sodipodi:r2="39.87455"
                 sodipodi:r1="306.72729"
                 sodipodi:cy="375.21933"
                 sodipodi:cx="-382.85715"
                 sodipodi:sides="4"
                 id="path9798"
                 style="fill:#ffd700;fill-opacity:1;stroke:#ffd700;stroke-width:5.85194;stroke-linecap:square;stroke-linejoin:miter;stroke-miterlimit:4;stroke-dasharray:none;stroke-dashoffset:0;stroke-opacity:1"
                 sodipodi:type="star" />
            </g>
            <circle
               style="fill:#ffffff;stroke:#ffd42a;stroke-width:9.63333;stroke-linecap:square;stroke-linejoin:miter;stroke-miterlimit:4;stroke-dasharray:none;stroke-dashoffset:0;stroke-opacity:1"
               id="path2985-1-7"
               transform="matrix(0.51903112,0,0,0.51903112,-1103.1364,285.11213)"
               cx="428.57144"
               cy="586.64789"
               r="271.42856" />
            <circle
               style="fill:none;stroke:#ff0000;stroke-width:29.271;stroke-linecap:square;stroke-linejoin:miter;stroke-miterlimit:4;stroke-dasharray:none;stroke-dashoffset:0;stroke-opacity:1"
               id="path2985-1"
               transform="matrix(0.32203387,0,0,0.32203387,-1018.709,400.68015)"
               cx="428.57144"
               cy="586.64789"
               r="271.42856" />
            <g
               transform="matrix(-0.03856857,1.0397736,-1.0397736,-0.03856857,-174.2661,669.36722)"
               style="font-style:normal;font-variant:normal;font-weight:normal;font-stretch:normal;font-size:40px;line-height:122%;font-family:'Linux Libertine';-inkscape-font-specification:'Linux Libertine';letter-spacing:0px;word-spacing:0px;fill:#cca32e;fill-opacity:1;stroke:none;stroke-width:10.3536;stroke-dasharray:none"
               id="text3791">
              <path
                 d="m 63.937331,706.81314 c 0.783166,0.13222 1.428456,0.18176 1.935871,0.14861 0.507378,-0.0332 0.901601,-0.19772 1.182672,-0.49357 0.28103,-0.2959 0.48021,-0.5957 0.597541,-0.89939 0.11729,-0.30374 0.244067,-0.78083 0.380331,-1.43126 0.158721,-0.15809 0.405,-0.20894 0.738838,-0.15255 0.333794,0.0563 0.536883,0.18307 0.609266,0.38018 -0.406922,2.09692 -0.774053,4.11473 -1.101392,6.05346 -0.31871,1.88732 -0.631233,3.89455 -0.937568,6.0217 -0.133084,0.16237 -0.363314,0.21593 -0.690691,0.16068 -0.327416,-0.0553 -0.546553,-0.18475 -0.657413,-0.38831 0.08487,-0.65917 0.122314,-1.15464 0.112336,-1.48642 -0.01002,-0.33185 -0.09971,-0.68043 -0.269096,-1.04573 -0.16942,-0.36537 -0.485097,-0.64646 -0.947033,-0.84328 -0.461971,-0.19688 -1.090959,-0.36251 -1.886966,-0.4969 l -15.811332,-2.66983 c -0.783183,-0.13227 -1.428473,-0.18181 -1.935871,-0.14861 -0.507395,0.0331 -0.901076,0.19445 -1.181046,0.48394 -0.279963,0.28943 -0.479143,0.58922 -0.597541,0.89939 -0.118391,0.31011 -0.24571,0.7904 -0.381957,1.44089 -0.13306,0.16237 -0.37292,0.21431 -0.719579,0.1558 -0.34665,-0.0586 -0.556159,-0.18637 -0.628525,-0.38343 0.406906,-2.09697 0.770784,-4.09553 1.091637,-5.99569 0.329532,-1.95156 0.645307,-3.97805 0.947323,-6.07947 0.158745,-0.15809 0.395395,-0.21056 0.70995,-0.15743 0.31456,0.0531 0.527277,0.18145 0.638154,0.38506 -0.08489,0.65911 -0.121789,1.15138 -0.11071,1.47679 0.01108,0.32538 0.100781,0.67396 0.269096,1.04573 0.168319,0.37174 0.483454,0.65604 0.945407,0.85291 0.461955,0.19683 1.090943,0.36246 1.886966,0.49689 l 7.761226,1.31053 2.064976,-12.22923 -7.761226,-1.31052 c -0.783187,-0.13226 -1.429019,-0.17859 -1.937498,-0.13899 -0.508481,0.0396 -0.902704,0.2041 -1.182671,0.49357 -0.279966,0.28945 -0.478605,0.58604 -0.595916,0.88977 -0.117309,0.3037 -0.244086,0.78079 -0.380331,1.43126 -0.158741,0.15805 -0.399142,0.2132 -0.721205,0.16543 -0.322059,-0.0478 -0.531025,-0.17881 -0.626899,-0.39307 0.406903,-2.09695 0.769698,-4.08909 1.088385,-5.97642 0.32953,-1.95155 0.646388,-3.98446 0.950576,-6.09874 0.158742,-0.15806 0.401811,-0.20946 0.729208,-0.15417 0.327396,0.0553 0.533694,0.18255 0.618895,0.38181 -0.08489,0.65913 -0.122333,1.1546 -0.112336,1.48642 0.01,0.33181 0.09969,0.68039 0.269097,1.04573 0.1694,0.36533 0.485077,0.64642 0.947033,0.84328 0.461951,0.19684 1.090939,0.36247 1.886966,0.49689 l 15.811332,2.66984 c 0.783163,0.13223 1.428453,0.18177 1.935871,0.14861 0.507374,-0.0332 0.901056,-0.19449 1.181045,-0.48394 0.279944,-0.28947 0.478582,-0.58605 0.595916,-0.88976 0.117286,-0.30373 0.245147,-0.78723 0.383583,-1.45053 0.158718,-0.15807 0.404997,-0.20892 0.738837,-0.15255 0.333792,0.0564 0.53688,0.18309 0.609267,0.38019 -0.406926,2.09693 -0.77514,4.12117 -1.104645,6.07272 -0.318713,1.88733 -0.630151,3.88814 -0.934316,6.00244 -0.133087,0.16238 -0.363859,0.21915 -0.692316,0.17031 -0.328503,-0.0489 -0.547099,-0.18153 -0.655787,-0.39795 0.08487,-0.65914 0.121769,-1.15141 0.11071,-1.47679 -0.0111,-0.32541 -0.101343,-0.67078 -0.270723,-1.0361 -0.169422,-0.36535 -0.484558,-0.64965 -0.945406,-0.8529 -0.460891,-0.20329 -1.089337,-0.37213 -1.88534,-0.50653 l -6.143502,-1.03736 -2.064976,12.22922 z"
                 style="font-weight:bold;line-height:122%;-inkscape-font-specification:'Linux Libertine Bold';letter-spacing:-1.9px;fill:#cca32e;fill-opacity:1;stroke-width:10.3536;stroke-dasharray:none"
                 id="path3865"
                 inkscape:connector-curvature="0" />
              <path
                 d="m 45.248451,719.8805 c 0.360301,-0.89364 0.953762,-1.50375 1.780382,-1.8303 0.826609,-0.32658 1.644469,-0.32675 2.453583,-5.2e-4 0.797021,0.32135 1.375716,0.90565 1.736086,1.75292 0.36035,0.84725 0.374984,1.68147 0.0439,2.50267 -0.321364,0.79702 -0.896029,1.38662 -1.723998,1.7688 -0.827984,0.38217 -1.66464,0.40284 -2.509968,0.062 -0.821187,-0.3311 -1.408355,-0.91181 -1.761504,-1.74211 -0.353157,-0.83033 -0.359318,-1.66815 -0.01848,-2.51348 z"
                 style="font-weight:bold;line-height:122%;-inkscape-font-specification:'Linux Libertine Bold';letter-spacing:-1.9px;fill:#cca32e;fill-opacity:1;stroke-width:10.3536;stroke-dasharray:none"
                 id="path3867"
                 inkscape:connector-curvature="0" />
              <path
                 d="m 41.310918,737.33247 -3.343511,5.0712 9.703853,2.49104 0.150512,-0.22828 -5.511545,-7.8916 c -0.04373,-0.0756 -0.09635,-0.12592 -0.157866,-0.15087 -0.06152,-0.025 -0.119342,-0.0319 -0.173452,-0.0208 -0.05412,0.0111 -0.117131,0.0475 -0.189039,0.1093 -0.07192,0.0617 -0.144634,0.14247 -0.218154,0.24218 -0.07353,0.0997 -0.16046,0.22561 -0.260798,0.37781 z m -4.440018,-8.0975 c -0.203079,-0.16509 -0.374533,-0.32492 -0.514362,-0.47949 -0.139825,-0.15458 -0.320565,-0.18796 -0.542218,-0.10015 -0.221648,0.0878 -0.39913,0.16183 -0.532446,0.22211 -0.13331,0.0603 -0.309507,0.20923 -0.52859,0.4469 -0.219076,0.23765 -0.38243,0.42628 -0.490062,0.56588 -0.107625,0.13957 -0.265483,0.34352 -0.473576,0.61183 -0.1443,0.0296 -0.363207,-0.0523 -0.656721,-0.24583 -0.293505,-0.19352 -0.455074,-0.36243 -0.484707,-0.50672 1.132905,-1.62369 2.129389,-3.08778 2.989453,-4.39226 0.293858,-0.44571 0.963753,-1.50907 2.009687,-3.19009 0.158638,-0.0514 0.381995,0.0179 0.670069,0.20785 0.288074,0.18993 0.445193,0.3715 0.471359,0.54471 -0.336381,0.60482 -0.568596,1.09896 -0.696647,1.48242 -0.128051,0.38346 -0.14814,0.86929 -0.06027,1.4575 0.08787,0.5882 0.382793,1.23493 0.884766,1.94021 l 12.31543,18.50679 c -0.544722,0.82615 -0.86,2.38065 -0.945834,4.6635 l -23.647614,-5.7188 c -0.408653,-0.1135 -0.787124,-0.14858 -1.135412,-0.10525 -0.348264,0.0433 -0.612592,0.0835 -0.792985,0.12052 -0.180366,0.037 -0.426863,0.20981 -0.73949,0.51839 -0.312599,0.30854 -0.486824,0.49 -0.522674,0.54438 -0.03582,0.0543 -0.229577,0.30089 -0.581265,0.73969 -0.144289,0.0296 -0.363195,-0.0523 -0.656721,-0.24583 -0.293494,-0.19354 -0.455063,-0.36245 -0.484707,-0.50673 1.132917,-1.6237 2.136567,-3.09866 3.010955,-4.42487 1.426289,-2.16329 2.662395,-4.08544 3.70832,-5.76645 0.158647,-0.0514 0.382003,0.0179 0.670069,0.20785 0.288083,0.18991 0.445202,0.37149 0.471358,0.54471 -0.086,0.13044 -0.195238,0.30795 -0.32772,0.53255 -0.132465,0.22457 -0.232687,0.40023 -0.300664,0.52699 -0.06796,0.12673 -0.152055,0.27793 -0.252285,0.45361 -0.100212,0.17565 -0.162686,0.31772 -0.18742,0.4262 -0.02472,0.10845 -0.0584,0.23051 -0.101054,0.36617 -0.04264,0.13563 -0.04926,0.25213 -0.01988,0.3495 0.0294,0.0973 0.07954,0.19279 0.150431,0.28634 0.07091,0.0935 0.164296,0.17068 0.280162,0.2315 0.115883,0.0608 0.26425,0.11961 0.445101,0.17649 l 6.682586,1.71558 4.182077,-6.34308 c 0.265185,-0.40223 0.406318,-0.69908 0.423399,-0.89056 0.01708,-0.1915 -0.05627,-0.41142 -0.220052,-0.65976 z"
                 style="font-weight:bold;line-height:122%;-inkscape-font-specification:'Linux Libertine Bold';letter-spacing:-1.9px;fill:#cca32e;fill-opacity:1;stroke-width:10.3536;stroke-dasharray:none"
                 id="path3869"
                 inkscape:connector-curvature="0" />
              <path
                 d="m 23.999167,749.58151 c -0.36985,-1.1257 -0.445775,-2.01059 -0.227775,-2.65469 0.217998,-0.64409 0.69569,-1.33608 1.433078,-2.07597 0.01346,-0.18365 -0.08618,-0.39867 -0.298912,-0.64506 -0.212738,-0.24639 -0.410931,-0.37631 -0.594578,-0.38977 -1.464005,1.33285 -2.398044,2.17372 -2.802122,2.52261 -1.192517,1.02964 -2.549888,2.16721 -4.072115,3.41272 0.0063,0.16662 0.11362,0.37067 0.322096,0.61214 0.208486,0.24145 0.398951,0.38235 0.571394,0.42269 0.516963,-0.37755 0.951267,-0.66652 1.302915,-0.86692 0.351653,-0.20041 0.729829,-0.29039 1.134529,-0.26996 0.404704,0.0204 0.695491,0.27254 0.872361,0.75633 l 5.136176,14.37652 0.5185,1.61665 -1.647368,-0.95161 -13.085556,-7.5645 c -0.29157,-0.17833 -0.468813,-0.37365 -0.531731,-0.58596 -0.0629,-0.21234 -0.0027,-0.46642 0.180499,-0.76225 0.183251,-0.29584 0.385975,-0.57409 0.608171,-0.83475 0.222216,-0.26068 0.536703,-0.58382 0.943463,-0.96943 0.01347,-0.18366 -0.08617,-0.39868 -0.298912,-0.64505 -0.212727,-0.2464 -0.41092,-0.37633 -0.594579,-0.38978 -1.463992,1.33285 -3.2258963,2.88851 -5.2857164,4.66699 -1.2122148,1.04665 -2.5794409,2.19273 -4.1016823,3.43825 -0.013442,0.18363 0.081604,0.39831 0.2851386,0.64405 0.203572,0.24569 0.4063559,0.37596 0.6083521,0.39078 0.5537067,-0.37487 0.9774824,-0.64615 1.2713286,-0.81384 0.29388,-0.16773 0.7027404,-0.26701 1.2265825,-0.29783 0.5238736,-0.0309 1.0659644,0.0989 1.626274,0.38923 l 20.9147339,10.89406 c 0.577336,0.31001 1.11665,0.25722 1.617944,-0.15837 0.502624,-0.43401 0.643341,-0.96837 0.422152,-1.60309 z"
                 style="font-weight:bold;line-height:122%;-inkscape-font-specification:'Linux Libertine Bold';letter-spacing:-1.9px;fill:#cca32e;fill-opacity:1;stroke-width:10.3536;stroke-dasharray:none"
                 id="path3871"
                 inkscape:connector-curvature="0" />
              <path
                 d="m -9.0326801,791.31111 c 0.3237195,0.72529 0.6399068,1.28998 0.9485628,1.69408 0.3086783,0.40405 0.6640202,0.64114 1.0660266,0.71128 0.4020266,0.0701 0.7619586,0.0699 1.0797971,-6.8e-4 0.3178565,-0.0706 0.7852914,-0.22931 1.402306,-0.47614 0.2195396,0.0446 0.3982924,0.22146 0.5362591,0.53064 0.1379807,0.30912 0.1449616,0.54841 0.020943,0.71785 -1.9712405,0.82271 -3.8545872,1.63473 -5.6500459,2.43607 -1.7478716,0.78005 -3.5921566,1.63167 -5.5328586,2.55487 -0.208901,-0.0209 -0.38102,-0.18288 -0.516359,-0.48605 -0.135302,-0.30324 -0.148916,-0.55739 -0.04084,-0.76244 0.595814,-0.29446 1.029075,-0.53773 1.299783,-0.72981 0.270743,-0.19215 0.511275,-0.45991 0.721596,-0.80328 0.210354,-0.34344 0.269529,-0.76196 0.177526,-1.25558 -0.09197,-0.49368 -0.302471,-1.10911 -0.631503,-1.84628 l -6.535182,-14.64301 c -0.323684,-0.72532 -0.639871,-1.29002 -0.948563,-1.69408 -0.308643,-0.40409 -0.661012,-0.6425 -1.057109,-0.71525 -0.396046,-0.0728 -0.755978,-0.0726 -1.079797,6.8e-4 -0.323766,0.0732 -0.794173,0.23324 -1.411224,0.48011 -0.20889,-0.0208 -0.38499,-0.19178 -0.528299,-0.5128 -0.143251,-0.32106 -0.152886,-0.56628 -0.0289,-0.73569 1.971277,-0.82274 3.836788,-1.62681 5.596539,-2.41218 1.80736,-0.80663 3.66948,-1.66621 5.586366,-2.57875 0.21955,0.0446 0.394322,0.21256 0.524319,0.50388 0.130031,0.29131 0.140992,0.53951 0.03288,0.74461 -0.595779,0.29441 -1.026067,0.53635 -1.290866,0.72583 -0.264762,0.18945 -0.505294,0.45721 -0.721596,0.80328 -0.216263,0.34604 -0.278411,0.7659 -0.186443,1.25956 0.09201,0.49363 0.302507,1.10906 0.631502,1.84628 l 3.207891,7.18773 11.3255898,-5.05462 -3.207891,-7.18773 c -0.3237002,-0.72532 -0.6428601,-1.28869 -0.9574807,-1.6901 -0.3146041,-0.40143 -0.6699459,-0.63852 -1.0660266,-0.71128 -0.396062,-0.0728 -0.7530214,-0.0739 -1.0708793,-0.003 -0.3178371,0.0706 -0.7852719,0.22927 -1.402306,0.47614 -0.2195202,-0.0446 -0.3985922,-0.21423 -0.5372167,-0.50883 -0.1385999,-0.29461 -0.1452616,-0.54116 -0.019985,-0.73966 1.9712599,-0.82274 3.8308258,-1.62415 5.5787036,-2.40423 1.8073431,-0.80662 3.67540825,-1.66885 5.6042012,-2.58671 0.2195331,0.0446 0.3969593,0.21852 0.532279,0.52172 0.1353209,0.30321 0.1436285,0.54546 0.024923,0.72677 -0.595795,0.29442 -1.0290557,0.53769 -1.2997834,0.72981 -0.27072401,0.19212 -0.51125572,0.45988 -0.7215959,0.80328 -0.21033494,0.3434 -0.26951014,0.76193 -0.17752579,1.25558 0.09199,0.49365 0.30249059,1.10907 0.63150256,1.84628 l 6.53518253,14.64301 c 0.323703,0.72529 0.6398904,1.28998 0.9485628,1.69408 0.3086619,0.40405 0.6610311,0.64247 1.0571088,0.71525 0.396065,0.0727 0.7530241,0.0738 1.0708791,0.003 0.31784,-0.0706 0.79122,-0.23195 1.420141,-0.48409 0.219524,0.0446 0.398276,0.22146 0.536259,0.53064 0.137965,0.30912 0.144946,0.54841 0.02094,0.71785 -1.971257,0.82271 -3.8605481,1.63738 -5.6678807,2.44402 -1.7478882,0.78006 -3.5862275,1.62903 -5.5150233,2.54691 -0.2089168,-0.0208 -0.38400892,-0.18154 -0.52527672,-0.48207 -0.14126323,-0.30058 -0.15190495,-0.55605 -0.0319252,-0.76642 0.59579792,-0.29444 1.02608602,-0.53639 1.29086562,-0.72583 0.2647817,-0.18949 0.5023409,-0.45592 0.7126781,-0.7993 0.2103379,-0.34343 0.2724857,-0.76328 0.1864436,-1.25956 -0.086042,-0.49632 -0.2935699,-1.11308 -0.6225848,-1.85026 l -2.53924876,-5.68954 -11.32558984,5.05461 z"
                 style="font-weight:bold;line-height:122%;-inkscape-font-specification:'Linux Libertine Bold';letter-spacing:-1.9px;fill:#cca32e;fill-opacity:1;stroke-width:10.3536;stroke-dasharray:none"
                 id="path3873"
                 inkscape:connector-curvature="0" />
              <path
                 d="m -37.481267,791.51655 -1.027754,0.12357 c -1.590095,0.19118 -2.558345,0.45514 -2.904755,0.79188 -0.346377,0.33671 -0.487916,0.98651 -0.424618,1.9494 -0.09097,0.11584 -0.29806,0.1932 -0.621269,0.23207 -0.323176,0.0389 -0.555628,0.0143 -0.697359,-0.0735 -0.139462,-1.59635 -0.263606,-2.84698 -0.372432,-3.7519 -0.08858,-0.7369 -0.269878,-2.02656 -0.543887,-3.86899 0.116861,-0.11898 0.333646,-0.1975 0.650357,-0.23558 0.316747,-0.0381 0.539503,-0.0124 0.66827,0.077 0.118568,0.54966 0.245486,0.95079 0.380756,1.20338 0.135304,0.25257 0.48803,0.45934 1.05818,0.6203 0.570182,0.16094 1.3853,0.17769 2.445359,0.0502 l 1.027754,-0.12358 c 1.59012,-0.1912 2.557982,-0.45839 2.903589,-0.80157 0.345625,-0.34321 0.494017,-0.99055 0.445175,-1.94203 0.091,-0.11587 0.294854,-0.19284 0.611574,-0.23091 0.316737,-0.0381 0.545958,-0.0132 0.687662,0.0747 0.139488,1.59631 0.262855,2.84048 0.370101,3.73251 0.08861,0.73686 0.270681,2.03299 0.546219,3.88838 -0.116835,0.11895 -0.333621,0.19747 -0.650357,0.23557 -0.316721,0.0381 -0.533014,0.0116 -0.648879,-0.0793 -0.118542,-0.54969 -0.248692,-0.95043 -0.390452,-1.20222 -0.141742,-0.25183 -0.4977,-0.4582 -1.067875,-0.61914 -0.570156,-0.16096 -1.385275,-0.17771 -2.445359,-0.0502 z m 1.233417,10.25814 c 1.900384,-0.22852 3.341858,-1.35593 4.324427,-3.38222 0.982582,-2.02634 1.243041,-4.95927 0.781379,-8.79878 -0.436781,-3.6327 -1.515893,-6.41767 -3.237341,-8.35492 -1.72143,-1.93726 -3.70686,-2.77066 -5.956296,-2.50019 -1.990852,0.23938 -3.422877,1.41811 -4.296079,3.53619 -0.873163,2.11808 -1.109236,4.84479 -0.708221,8.18016 0.467894,3.89122 1.544325,6.8175 3.229296,8.77883 1.685004,1.96129 3.639281,2.80826 5.862835,2.54093 z m -14.983871,-9.76546 c -0.467848,-3.89126 0.287408,-7.20826 2.26577,-9.95102 2.11489,-2.91656 5.189822,-4.61086 9.224807,-5.0829 3.51635,-0.4228 6.697489,0.37502 9.543426,2.39347 2.845947,2.01843 4.496637,4.92156 4.952076,8.70939 0.447667,3.72317 -0.24839,6.98715 -2.088175,9.79196 -1.008544,1.53762 -2.302477,2.80139 -3.881803,3.7913 -1.579313,0.98986 -3.345015,1.60216 -5.29711,1.8369 -3.710241,0.44608 -6.974775,-0.39089 -9.793613,-2.51093 -2.818795,-2.12008 -4.460586,-5.1128 -4.925378,-8.97817 z"
                 style="font-weight:bold;line-height:122%;-inkscape-font-specification:'Linux Libertine Bold';letter-spacing:-1.9px;fill:#cca32e;fill-opacity:1;stroke-width:10.3536;stroke-dasharray:none"
                 id="path3875"
                 inkscape:connector-curvature="0" />
              <path
                 d="m -67.052447,791.59036 c -1.367886,-0.18391 -2.321505,-0.15118 -2.860859,0.0982 -0.539319,0.24936 -0.905927,0.89967 -1.099825,1.95093 -0.146378,0.11168 -0.445409,0.13717 -0.897094,0.0765 -0.451646,-0.0607 -0.720423,-0.16256 -0.806332,-0.30547 0.26503,-1.58036 0.444377,-2.71896 0.538042,-3.4158 0.06421,-0.47749 0.19454,-1.64238 0.390991,-3.49469 0.120606,-0.11518 0.406732,-0.1424 0.858379,-0.0817 0.451684,0.0607 0.733366,0.16427 0.845046,0.31067 -0.07328,0.93608 0.122584,1.62916 0.587576,2.07925 0.465027,0.45008 1.362125,0.76447 2.691298,0.94317 l 3.21328,0.43199 1.220494,-9.07848 c 0.07114,-0.5291 -0.02988,-0.99923 -0.303066,-1.41038 -0.273163,-0.41116 -0.629131,-0.64623 -1.067903,-0.70522 l -4.006921,-0.53868 c -2.7745,-0.373 -4.866503,1.06683 -6.276015,4.31949 -0.704747,0.0629 -1.28969,-0.0814 -1.75483,-0.43299 0.105423,-0.39311 0.280819,-1.06256 0.526188,-2.00834 0.245415,-0.94579 0.486606,-1.78704 0.723574,-2.52375 0.237013,-0.73671 0.471971,-1.38501 0.704876,-1.94491 2.367552,0.37084 4.1901,0.64214 5.467652,0.81389 l 9.310769,1.25172 c 2.803801,0.35066 4.859123,0.6007 6.165969,0.75011 0.08936,0.11712 0.111051,0.34667 0.06508,0.68864 -0.04598,0.34198 -0.128388,0.5641 -0.24724,0.66636 -1.490983,-0.14789 -2.468539,-0.0593 -2.932673,0.26592 -0.464127,0.32517 -0.801153,1.2685 -1.011079,2.82997 l -2.13131,15.85347 c -0.213385,1.58726 -0.139194,2.59901 0.222571,3.03524 0.361779,0.43618 1.281217,0.77985 2.758317,1.031 0.08589,0.1429 0.107151,0.37568 0.06377,0.69832 -0.04337,0.32259 -0.125348,0.54149 -0.245939,0.65668 l -6.106436,-0.89977 -11.691693,-1.57181 c -0.683928,-0.092 -1.336104,-0.12709 -1.956529,-0.10537 -0.103214,-0.0139 -0.156081,-0.0604 -0.1586,-0.13957 -0.01538,-0.0809 1.25e-4,-0.48939 0.0465,-1.22543 0.04643,-0.73608 0.09939,-1.56979 0.158885,-2.50113 0.05954,-0.93138 0.09386,-1.62636 0.102934,-2.08495 0.508727,-0.16811 1.085209,-0.1563 1.729449,0.0354 0.271045,1.59984 0.67935,2.76489 1.224917,3.49515 0.545608,0.73023 1.508804,1.18817 2.889592,1.37382 l 3.368137,0.45281 c 0.451679,0.0607 0.862052,-0.0845 1.231119,-0.43555 0.369093,-0.35112 0.587463,-0.7783 0.655111,-1.28157 l 1.007103,-7.4912 z"
                 style="font-weight:bold;line-height:122%;-inkscape-font-specification:'Linux Libertine Bold';letter-spacing:-1.9px;fill:#cca32e;fill-opacity:1;stroke-width:10.3536;stroke-dasharray:none"
                 id="path3877"
                 inkscape:connector-curvature="0" />
              <path
                 d="m -85.339281,794.06863 c -0.245839,0.75525 -0.389624,1.38626 -0.431355,1.89305 -0.04171,0.50674 0.06003,0.91985 0.305211,1.23931 0.245205,0.31943 0.509398,0.55948 0.792579,0.72015 0.283202,0.16063 0.742684,0.35812 1.378445,0.59249 0.133045,0.18021 0.147168,0.43129 0.04237,0.75323 -0.10478,0.32189 -0.259965,0.50416 -0.465556,0.54681 -2.014413,-0.71052 -3.962608,-1.37208 -5.844591,-1.98466 -1.820046,-0.59248 -3.753409,-1.19444 -5.800095,-1.80587 -0.141076,-0.15549 -0.163333,-0.3921 -0.06677,-0.70982 0.0966,-0.31776 0.259922,-0.5145 0.489956,-0.59022 0.639531,0.18076 1.121033,0.28957 1.444509,0.32643 0.323514,0.0368 0.67839,-0.002 1.064627,-0.1156 0.386274,-0.11392 0.713782,-0.38387 0.982525,-0.80987 0.268777,-0.42603 0.528098,-1.02286 0.777962,-1.79049 l 4.963353,-15.24766 c 0.245861,-0.75527 0.386551,-1.38729 0.422069,-1.89607 0.03554,-0.50878 -0.06929,-0.92289 -0.314497,-1.24234 -0.245183,-0.31945 -0.509376,-0.5595 -0.79258,-0.72015 -0.28318,-0.16065 -0.73647,-0.35613 -1.359872,-0.58644 -0.133023,-0.18023 -0.152257,-0.42613 -0.0577,-0.73768 0.09458,-0.31155 0.254876,-0.499 0.480887,-0.56236 2.014436,0.7105 3.931678,1.36198 5.751731,1.95443 1.881975,0.61262 3.846292,1.22465 5.892956,1.83609 0.133037,0.18024 0.148168,0.42822 0.04539,0.74395 -0.102773,0.31572 -0.258965,0.50109 -0.468579,0.5561 -0.639509,-0.18079 -1.124107,-0.2906 -1.453796,-0.32946 -0.329682,-0.0389 -0.687653,-10e-4 -1.073913,0.11258 -0.386251,0.1139 -0.710664,0.38486 -0.973238,0.81289 -0.262565,0.42803 -0.51879,1.02587 -0.768676,1.79351 z"
                 style="font-weight:bold;line-height:122%;-inkscape-font-specification:'Linux Libertine Bold';letter-spacing:-1.9px;fill:#cca32e;fill-opacity:1;stroke-width:10.3536;stroke-dasharray:none"
                 id="path3879"
                 inkscape:connector-curvature="0" />
              <path
                 d="m -102.28234,776.83203 -5.25895,-3.03967 -1.91638,9.83349 0.23674,0.13684 7.55401,-5.96586 c 0.0729,-0.0481 0.12004,-0.10358 0.14133,-0.16646 0.0213,-0.0629 0.0248,-0.12101 0.0105,-0.17437 -0.0143,-0.0534 -0.0543,-0.11414 -0.12023,-0.18229 -0.0659,-0.0682 -0.15072,-0.13601 -0.25458,-0.20354 -0.10382,-0.0675 -0.23465,-0.14692 -0.39249,-0.23814 z m 7.822534,-4.90828 c 0.152872,-0.21244 0.302348,-0.39299 0.448431,-0.54166 0.146096,-0.14867 0.1688,-0.33106 0.06811,-0.54717 -0.100675,-0.2161 -0.185015,-0.38893 -0.253022,-0.51847 -0.06799,-0.12954 -0.227058,-0.29667 -0.477195,-0.50141 -0.250123,-0.20473 -0.448024,-0.35671 -0.593704,-0.45595 -0.145664,-0.0992 -0.358536,-0.24484 -0.638616,-0.4368 -0.03805,-0.14231 0.03089,-0.36565 0.206806,-0.67003 0.175938,-0.30437 0.335058,-0.47559 0.477363,-0.51366 1.68747,1.03552 3.207593,1.94422 4.560373,2.72613 0.462205,0.26715 1.5631,0.87339 3.302689,1.81871 0.06061,0.15535 0.0046,0.38239 -0.168099,0.68113 -0.172671,0.29874 -0.344694,0.46626 -0.51607,0.50256 -0.623542,-0.30025 -1.130475,-0.50302 -1.5208,-0.60831 -0.390321,-0.10529 -0.876494,-0.0968 -1.458521,0.0255 -0.58202,0.12229 -1.210302,0.45472 -1.88485,0.99727 l -17.750939,13.3819 c -0.85674,-0.49522 -2.42709,-0.71859 -4.71104,-0.6701 l 4.319,-23.94286 c 0.0893,-0.41461 0.10207,-0.79449 0.0383,-1.13963 -0.0637,-0.34512 -0.11932,-0.60663 -0.16692,-0.78453 -0.0476,-0.17788 -0.23454,-0.4138 -0.56097,-0.70774 -0.32638,-0.29393 -0.51776,-0.45719 -0.57415,-0.48978 -0.0563,-0.0326 -0.31387,-0.21149 -0.77258,-0.53678 -0.038,-0.1423 0.0309,-0.36565 0.20681,-0.67004 0.17595,-0.30436 0.33507,-0.47558 0.47736,-0.51365 1.68749,1.03552 3.21888,1.95075 4.59419,2.74567 2.24339,1.29668 4.23487,2.41767 5.97444,3.36298 0.0606,0.15536 0.005,0.3824 -0.1681,0.68113 -0.17265,0.29875 -0.34468,0.46627 -0.51607,0.50256 -0.13526,-0.0782 -0.31889,-0.1768 -0.55088,-0.29585 -0.23197,-0.11904 -0.41322,-0.20876 -0.54376,-0.26917 -0.1305,-0.0604 -0.28639,-0.13546 -0.46765,-0.22519 -0.18124,-0.0897 -0.32673,-0.14373 -0.43648,-0.16205 -0.10972,-0.0183 -0.23354,-0.0448 -0.37147,-0.0793 -0.1379,-0.0346 -0.25459,-0.0344 -0.35007,6.9e-4 -0.0954,0.0351 -0.18778,0.0907 -0.277,0.167 -0.0892,0.0763 -0.16073,0.17404 -0.21464,0.29328 -0.0539,0.11926 -0.10387,0.27083 -0.15002,0.45471 l -1.31983,6.77187 6.57791,3.80202 c 0.41712,0.24109 0.721758,0.36453 0.913908,0.37033 0.192175,0.006 0.407403,-0.0804 0.645683,-0.25845 z"
                 style="font-weight:bold;line-height:122%;-inkscape-font-specification:'Linux Libertine Bold';letter-spacing:-1.9px;fill:#cca32e;fill-opacity:1;stroke-width:10.3536;stroke-dasharray:none"
                 id="path3881"
                 inkscape:connector-curvature="0" />
              <path
                 d="m -120.33714,759.09877 c 0.72257,0.63743 1.10011,1.40024 1.13263,2.28844 0.0325,0.88818 -0.23976,1.65938 -0.8169,2.31359 -0.56852,0.64444 -1.31223,0.99542 -2.23116,1.05294 -0.9189,0.0575 -1.71034,-0.2066 -2.37433,-0.79235 -0.64443,-0.56852 -1.0089,-1.30678 -1.09343,-2.21478 -0.0845,-0.908 0.17474,-1.70375 0.77771,-2.38725 0.58576,-0.66397 1.3289,-1.02414 2.22943,-1.08051 0.90054,-0.0564 1.69256,0.21694 2.37605,0.81992 z"
                 style="font-weight:bold;line-height:122%;-inkscape-font-specification:'Linux Libertine Bold';letter-spacing:-1.9px;fill:#cca32e;fill-opacity:1;stroke-width:10.3536;stroke-dasharray:none"
                 id="path3883"
                 inkscape:connector-curvature="0" />
              <path
                 d="m -138.91193,750.45946 c -0.86546,-1.07514 -1.57962,-1.70794 -2.14248,-1.89841 -0.56283,-0.19046 -1.27644,0.0288 -2.14083,0.65773 -0.18306,-0.0198 -0.41748,-0.20717 -0.70327,-0.56217 -0.28575,-0.355 -0.41058,-0.61389 -0.37449,-0.77669 1.28025,-0.9637 2.19422,-1.666 2.74192,-2.10691 0.3753,-0.30209 1.27183,-1.05721 2.68958,-2.26536 0.16676,-5e-4 0.39302,0.17675 0.67877,0.53174 0.28579,0.35501 0.41878,0.62405 0.39899,0.80712 -0.69761,0.62844 -1.03273,1.26595 -1.00537,1.91252 0.0274,0.64658 0.46157,1.49223 1.30253,2.53694 l 2.03305,2.52557 7.1355,-5.74397 c 0.41586,-0.33475 0.66626,-0.74526 0.75121,-1.23154 0.0849,-0.48626 -0.0114,-0.90182 -0.28898,-1.24669 l -2.53519,-3.14935 c -1.75543,-2.1807 -4.26396,-2.57675 -7.5256,-1.18815 -0.55443,-0.43958 -0.8793,-0.94697 -0.9746,-1.52219 0.3471,-0.21252 0.93521,-0.57729 1.76432,-1.0943 0.82914,-0.51698 1.58325,-0.96104 2.26232,-1.3322 0.6791,-0.37113 1.29585,-0.67955 1.85024,-0.92527 1.46177,1.89896 2.59681,3.3505 3.40512,4.35463 l 5.89093,7.31807 c 1.79206,2.18467 3.11055,3.78105 3.95549,4.78915 -0.0158,0.14646 -0.15813,0.32787 -0.42692,0.54424 -0.26878,0.21637 -0.48148,0.32073 -0.63808,0.31307 -0.97953,-1.13377 -1.74954,-1.74251 -2.31003,-1.82622 -0.56048,-0.0837 -1.45437,0.36841 -2.68166,1.35636 l -12.4605,10.0305 c -1.24755,1.00427 -1.8903,1.78912 -1.92826,2.35457 -0.0379,0.56542 0.3923,1.44768 1.29067,2.64678 -0.0361,0.16278 -0.18093,0.34623 -0.43452,0.55037 -0.25356,0.2041 -0.46371,0.30642 -0.63048,0.30694 l -3.80928,-4.8567 -7.39734,-9.18943 c -0.43271,-0.53757 -0.88152,-1.01205 -1.34645,-1.42345 -0.0653,-0.0811 -0.0716,-0.15128 -0.0189,-0.21041 0.0446,-0.0693 0.33702,-0.35486 0.8774,-0.85674 0.54045,-0.50188 1.15285,-1.07008 1.83721,-1.70458 0.68442,-0.6345 1.18778,-1.11492 1.51009,-1.44126 0.4847,0.22832 0.89467,0.63378 1.2299,1.21638 -0.90487,1.34691 -1.41085,2.47298 -1.51795,3.37822 -0.10703,0.90524 0.27625,1.9005 1.14986,2.98579 l 2.13103,2.64728 c 0.28579,0.355 0.68337,0.53223 1.19274,0.53171 0.50942,-5.3e-4 0.96191,-0.16001 1.35745,-0.47843 l 5.88793,-4.73969 z"
                 style="font-weight:bold;line-height:122%;-inkscape-font-specification:'Linux Libertine Bold';letter-spacing:-1.9px;fill:#cca32e;fill-opacity:1;stroke-width:10.3536;stroke-dasharray:none"
                 id="path3885"
                 inkscape:connector-curvature="0" />
              <path
                 d="m -138.44167,734.17644 c 1.1842,-0.0406 2.05507,0.13375 2.6126,0.52303 0.55754,0.38928 1.0885,1.04129 1.59289,1.95604 0.17258,0.0642 0.40687,0.0286 0.70289,-0.10678 0.29601,-0.13542 0.47614,-0.28942 0.54037,-0.46199 -0.87072,-1.77811 -1.41713,-2.90989 -1.63922,-3.39535 -0.65544,-1.43271 -1.36845,-3.05387 -2.13903,-4.86347 -0.16174,-0.0405 -0.38766,0.006 -0.67775,0.13823 -0.29009,0.13272 -0.4786,0.27623 -0.56551,0.43054 0.21806,0.60186 0.37418,1.09961 0.46835,1.49324 0.0942,0.39365 0.0749,0.7819 -0.0578,1.16478 -0.13269,0.38287 -0.456,0.59164 -0.96995,0.62629 l -15.23902,0.91476 -1.69713,0.0462 1.37399,-1.31588 10.9194,-10.45084 c 0.25269,-0.23014 0.48975,-0.34575 0.71119,-0.34684 0.22146,-0.001 0.44861,0.1277 0.68145,0.38629 0.23287,0.25861 0.44339,0.531 0.63159,0.81718 0.1882,0.2862 0.41061,0.67845 0.66721,1.17675 0.17258,0.0642 0.40687,0.0287 0.70288,-0.10677 0.29602,-0.13541 0.47615,-0.28941 0.54038,-0.462 -0.87072,-1.77809 -1.87214,-3.90448 -3.00427,-6.37918 -0.66626,-1.45638 -1.38469,-3.08937 -2.15528,-4.89899 -0.17257,-0.0642 -0.40526,-0.0329 -0.69807,0.0938 -0.29279,0.12682 -0.47452,0.28513 -0.5452,0.47494 0.20523,0.63639 0.3473,1.11909 0.42622,1.44809 0.0789,0.32904 0.06,0.74935 -0.0568,1.26094 -0.11674,0.51163 -0.39278,0.99589 -0.82811,1.45276 l -16.30386,17.03792 c -0.45898,0.46772 -0.55898,1.00031 -0.3,1.59775 0.27628,0.60387 0.75005,0.88829 1.42129,0.85325 z"
                 style="font-weight:bold;line-height:122%;-inkscape-font-specification:'Linux Libertine Bold';letter-spacing:-1.9px;fill:#cca32e;fill-opacity:1;stroke-width:10.3536;stroke-dasharray:none"
                 id="path3887"
                 inkscape:connector-curvature="0" />
              <path
                 d="m -161.49859,700.28759 c -0.2457,-1.35815 -0.57013,-2.25548 -0.97331,-2.692 -0.40314,-0.43649 -1.13468,-0.58532 -2.19462,-0.44651 -0.15129,-0.10493 -0.26751,-0.38163 -0.34866,-0.8301 -0.0811,-0.44843 -0.0669,-0.7355 0.0427,-0.86119 1.58527,-0.23386 2.72384,-0.41338 3.41571,-0.53857 0.4741,-0.0857 1.62261,-0.32 3.44556,-0.70274 0.14669,0.0793 0.26059,0.34322 0.34171,0.79165 0.0811,0.44847 0.0692,0.74835 -0.0357,0.89964 -0.91324,0.21817 -1.51249,0.61769 -1.79776,1.19857 -0.28524,0.58091 -0.30849,1.53122 -0.0697,2.85093 l 0.57719,3.19039 9.01383,-1.63074 c 0.52533,-0.095 0.9416,-0.33574 1.24881,-0.72213 0.30722,-0.38638 0.42142,-0.79739 0.34261,-1.23303 l -0.71975,-3.97839 c -0.49838,-2.75474 -2.51181,-4.30253 -6.04032,-4.64338 -0.2766,-0.65124 -0.31916,-1.25222 -0.12769,-1.80294 0.40648,-0.0206 1.09742,-0.0596 2.07283,-0.11698 0.97543,-0.0574 1.85008,-0.0866 2.62396,-0.0877 0.7739,-10e-4 1.46304,0.0231 2.06743,0.0726 0.37527,2.36685 0.67765,4.1845 0.90713,5.45296 l 1.67246,9.24446 c 0.52864,2.77575 0.92283,4.80835 1.18258,6.09781 -0.084,0.12105 -0.29571,0.21229 -0.63525,0.27372 -0.33954,0.0614 -0.57624,0.0513 -0.7101,-0.0303 -0.31782,-1.46421 -0.70281,-2.36712 -1.15497,-2.70875 -0.45215,-0.34163 -1.4534,-0.3722 -3.00376,-0.0917 l -15.74057,2.84771 c -1.57596,0.28511 -2.51585,0.66687 -2.81967,1.14526 -0.30378,0.47839 -0.34802,1.45896 -0.13272,2.94171 -0.10956,0.12568 -0.32451,0.2175 -0.64486,0.27546 -0.3203,0.0579 -0.55379,0.0473 -0.70049,-0.0321 l -1.02187,-6.0872 -2.10014,-11.60843 c -0.12283,-0.67906 -0.28998,-1.31043 -0.50146,-1.89411 -0.0185,-0.10248 0.009,-0.16709 0.084,-0.19383 0.0723,-0.0395 0.46572,-0.1504 1.18034,-0.33263 0.71468,-0.18221 1.52427,-0.38822 2.42877,-0.61804 0.90455,-0.22979 1.57641,-0.41088 2.01556,-0.54328 0.31642,0.43237 0.48248,0.98454 0.49817,1.65653 -1.43893,0.74993 -2.42194,1.49676 -2.94902,2.24047 -0.52704,0.74375 -0.66655,1.8011 -0.41855,3.17206 l 0.60501,3.34415 c 0.0812,0.44846 0.34551,0.79429 0.79307,1.0375 0.44761,0.24322 0.92125,0.31962 1.42093,0.22921 l 7.43785,-1.34562 z"
                 style="font-weight:bold;line-height:122%;-inkscape-font-specification:'Linux Libertine Bold';letter-spacing:-1.9px;fill:#cca32e;fill-opacity:1;stroke-width:10.3536;stroke-dasharray:none"
                 id="path3889"
                 inkscape:connector-curvature="0" />
              <path
                 d="m -153.14263,672.50446 c 1.59935,0.0841 2.60262,-0.088 3.00979,-0.51649 0.40717,-0.42841 0.68737,-1.4796 0.84059,-3.15357 0.1355,-0.0972 0.36253,-0.13738 0.6811,-0.12064 0.31857,0.0168 0.52713,0.0799 0.62569,0.18936 -0.19219,2.66287 -0.3293,4.77447 -0.41135,6.3348 -0.10804,2.05446 -0.20477,4.38984 -0.29019,7.00615 -0.1095,0.0986 -0.32353,0.13945 -0.6421,0.1227 -0.31857,-0.0168 -0.54013,-0.0806 -0.66469,-0.19142 0.0362,-1.6801 -0.12879,-2.75796 -0.49494,-3.23358 -0.36616,-0.4756 -1.34891,-0.75546 -2.94826,-0.83958 l -5.46121,-0.28718 c -0.71514,-0.0376 -1.23115,-0.0191 -1.54802,0.0555 -0.31684,0.0746 -0.79007,0.27139 -1.41967,0.59032 l -8.84959,4.63934 c -1.09903,0.56807 -1.81742,1.08771 -2.15515,1.5589 -0.33769,0.4712 -0.56264,1.15369 -0.67486,2.04746 -0.13684,0.1232 -0.36781,0.17625 -0.6929,0.15915 -0.32505,-0.0171 -0.54986,-0.0811 -0.67445,-0.19193 0.13614,-1.59662 0.26164,-3.48716 0.37648,-5.67165 0.0616,-1.17025 0.1224,-2.82298 0.1825,-4.9582 0.13689,-0.12317 0.36461,-0.17639 0.68315,-0.15965 0.3186,0.0168 0.54598,0.0939 0.68215,0.23145 -0.004,1.06898 0.16161,1.70029 0.49693,1.89394 0.33537,0.19367 0.88627,0.0694 1.65271,-0.37271 l 7.57261,-3.78725 c 0.60292,-0.30729 0.65766,-0.6043 0.16421,-0.89104 l -7.5268,-4.52259 c -0.56801,-0.35582 -1.02756,-0.35717 -1.37864,-0.004 -0.35104,0.35317 -0.57719,0.99648 -0.67845,1.92993 -0.13685,0.12321 -0.36781,0.17626 -0.69291,0.15915 -0.32505,-0.0171 -0.54918,-0.0941 -0.67239,-0.23094 0.16417,-2.12972 0.26778,-3.60418 0.31083,-4.42338 0.0465,-0.88417 0.0858,-2.12731 0.11789,-3.72942 0.13689,-0.12317 0.3646,-0.17639 0.68315,-0.15966 0.31859,0.0168 0.54598,0.0939 0.68215,0.23145 0.0404,0.96703 0.16229,1.68731 0.36554,2.16085 0.2033,0.47359 0.65774,0.94407 1.36331,1.41143 l 8.27314,5.57887 c 0.73025,0.49477 1.83037,0.77428 3.30037,0.83853 z"
                 style="font-weight:bold;line-height:122%;-inkscape-font-specification:'Linux Libertine Bold';letter-spacing:-1.9px;fill:#cca32e;fill-opacity:1;stroke-width:10.3536;stroke-dasharray:none"
                 id="path3891"
                 inkscape:connector-curvature="0" />
              <path
                 d="m -157.69068,647.24309 0.31767,-0.98521 c 0.49149,-1.52427 0.65675,-2.51415 0.49578,-2.96966 -0.16095,-0.45546 -0.69196,-0.85584 -1.59304,-1.20112 -0.0672,-0.13108 -0.0508,-0.35154 0.0491,-0.66138 0.0999,-0.30979 0.2194,-0.51067 0.35849,-0.60266 1.50831,0.54108 2.6962,0.95145 3.56368,1.23113 0.70638,0.22778 1.95363,0.60258 3.74175,1.12438 0.0592,0.15591 0.0398,0.38567 -0.0581,0.68926 -0.0979,0.30364 -0.21439,0.49524 -0.34949,0.57478 -0.54886,-0.12223 -0.9663,-0.17474 -1.25232,-0.15753 -0.28601,0.0172 -0.62136,0.25114 -1.00606,0.70169 -0.38469,0.45058 -0.74086,1.18395 -1.06852,2.20013 l -0.31766,0.9852 c -0.49148,1.52431 -0.65364,2.51519 -0.48649,2.97266 0.16716,0.4575 0.69307,0.86307 1.57775,1.21671 0.0672,0.13112 0.0518,0.34848 -0.0461,0.65208 -0.0979,0.30363 -0.21638,0.50142 -0.35549,0.59337 -1.50829,-0.54104 -2.68999,-0.94942 -3.54508,-1.22514 -0.70637,-0.22774 -1.95982,-0.60453 -3.76034,-1.13037 -0.0592,-0.15587 -0.0398,-0.38563 0.0581,-0.68926 0.0979,-0.30361 0.21241,-0.489 0.3435,-0.55619 0.54888,0.12226 0.96732,0.17167 1.25532,0.14824 0.28802,-0.0234 0.62437,-0.26041 1.00905,-0.71098 0.38471,-0.45055 0.74088,-1.18392 1.06852,-2.20013 z m -9.8335,-3.17065 c -0.58736,1.82173 -0.1663,3.60263 1.2632,5.3427 1.42953,1.74011 3.98458,3.20352 7.66516,4.39025 3.48232,1.12283 6.46333,1.30761 8.94303,0.55435 2.47971,-0.75324 4.06719,-2.20801 4.76246,-4.36434 0.61534,-1.90844 0.14371,-3.70222 -1.41491,-5.38135 -1.55863,-1.67909 -3.93658,-3.0341 -7.13386,-4.06503 -3.73016,-1.2027 -6.83839,-1.44903 -9.32471,-0.73898 -2.48629,0.7101 -4.07308,2.1309 -4.76037,4.2624 z m 15.13779,-9.52511 c 3.73017,1.20276 6.42711,3.27626 8.09084,6.22052 1.76448,3.14097 2.01719,6.64268 0.75812,10.50515 -1.08685,3.37079 -3.14219,5.92652 -6.16601,7.6672 -3.02382,1.74069 -6.35124,2.02566 -9.98227,0.85489 -3.56905,-1.15077 -6.2426,-3.14833 -8.02065,-5.99267 -0.97477,-1.55926 -1.5814,-3.26318 -1.81992,-5.11178 -0.23847,-1.84856 -0.056,-3.70849 0.5473,-5.57979 1.14681,-3.55664 3.27259,-6.17174 6.37735,-7.84531 3.1048,-1.67351 6.50987,-1.91291 10.21524,-0.71821 z"
                 style="font-weight:bold;line-height:122%;-inkscape-font-specification:'Linux Libertine Bold';letter-spacing:-1.9px;fill:#cca32e;fill-opacity:1;stroke-width:10.3536;stroke-dasharray:none"
                 id="path3893"
                 inkscape:connector-curvature="0" />
              <path
                 d="m -145.32868,620.33873 c 0.74253,-1.16344 1.11417,-2.04227 1.11494,-2.63649 7.8e-4,-0.59418 -0.43484,-1.20043 -1.30686,-1.81875 -0.0397,-0.17979 0.063,-0.46177 0.30819,-0.84596 0.24517,-0.38414 0.45066,-0.5851 0.61645,-0.60288 1.32204,0.90553 2.27941,1.54741 2.87211,1.92565 0.40612,0.2592 1.40797,0.86769 3.00557,1.82546 0.0537,0.15788 -0.042,0.42889 -0.28717,0.81303 -0.24518,0.38418 -0.45767,0.59612 -0.63747,0.63581 -0.8183,-0.46043 -1.52944,-0.57445 -2.13343,-0.34207 -0.60399,0.23241 -1.26673,0.91388 -1.98824,2.0444 l -1.74421,2.73303 7.72165,4.92793 c 0.45002,0.28721 0.919,0.39343 1.40694,0.31866 0.48793,-0.0747 0.85099,-0.29873 1.08916,-0.67192 l 2.17501,-3.40807 c 1.50604,-2.35983 1.08038,-4.86351 -1.27697,-7.51103 0.23954,-0.66577 0.61664,-1.13564 1.13131,-1.40963 0.31223,0.26108 0.84569,0.70193 1.60037,1.32256 0.75466,0.62067 1.41627,1.19351 1.98483,1.71852 0.56853,0.52505 1.05774,1.01104 1.46761,1.45795 -1.33281,1.99159 -2.34595,3.53069 -3.03942,4.61731 l -5.05402,7.91922 c -1.49811,2.39582 -2.58993,4.15502 -3.27547,5.27761 -0.14385,0.0318 -0.36121,-0.0452 -0.65207,-0.23079 -0.29087,-0.18563 -0.45767,-0.35387 -0.50042,-0.50472 0.76166,-1.29027 1.09267,-2.21434 0.99303,-2.77222 -0.0996,-0.55787 -0.81351,-1.26061 -2.14161,-2.1082 l -13.48408,-8.60549 c -1.35004,-0.86159 -2.29904,-1.22009 -2.84701,-1.07552 -0.54793,0.14461 -1.24664,0.83401 -2.09612,2.06823 -0.16578,0.0178 -0.38588,-0.0609 -0.6603,-0.23605 -0.27438,-0.17511 -0.43845,-0.34159 -0.49219,-0.49947 l 3.38617,-5.16062 6.34642,-9.9443 c 0.37127,-0.5817 0.67761,-1.15853 0.91902,-1.73047 0.056,-0.0878 0.1205,-0.11615 0.19335,-0.0851 0.0799,0.0201 0.44389,0.20608 1.09205,0.55792 0.64817,0.3519 1.38216,0.75082 2.20197,1.19676 0.81982,0.446 1.43581,0.76962 1.84799,0.97085 -0.0616,0.53223 -0.31494,1.0502 -0.76001,1.55392 -1.56532,-0.42744 -2.794,-0.54739 -3.68606,-0.35983 -0.89203,0.18761 -1.71281,0.86862 -2.46234,2.04303 l -1.82827,2.86475 c -0.24516,0.38419 -0.28617,0.81755 -0.12304,1.30009 0.16317,0.48258 0.45878,0.86046 0.88683,1.13363 l 6.3716,4.06633 z"
                 style="font-weight:bold;line-height:122%;-inkscape-font-specification:'Linux Libertine Bold';letter-spacing:-1.9px;fill:#cca32e;fill-opacity:1;stroke-width:10.3536;stroke-dasharray:none"
                 id="path3895"
                 inkscape:connector-curvature="0" />
              <path
                 d="m -136.35101,591.54944 c 2.11641,-2.06327 4.01519,-3.30523 5.69636,-3.72588 2.32749,-0.5597 4.33644,0.0367 6.02683,1.78923 1.93604,1.9859 2.77443,4.12357 2.51515,6.413 -0.21872,1.99535 -1.58218,4.22475 -4.09039,6.68819 -0.27038,0.26361 -0.63329,0.56286 -1.08872,0.89775 -0.62768,0.12095 -1.20965,-0.0936 -1.74592,-0.64371 0.45544,-0.33489 0.96286,-0.77502 1.52226,-1.3204 1.16541,-1.13616 1.66319,-2.26701 1.49333,-3.39255 -0.16986,-1.12549 -0.98648,-2.43878 -2.44988,-3.93986 -2.71773,-2.78765 -5.26998,-3.01804 -7.65676,-0.69118 -0.72721,0.709 -1.02983,1.3359 -0.90785,1.88068 0.122,0.54484 0.67836,1.32537 1.6691,2.34159 l 11.22089,11.50966 c 0.55445,0.56873 1.04866,0.98706 1.48263,1.25499 0.43397,0.26795 0.84936,0.3676 1.24617,0.29897 0.39681,-0.0686 0.73214,-0.19096 1.00602,-0.36704 0.27386,-0.17606 0.65763,-0.48656 1.15131,-0.93148 0.22141,-0.034 0.44807,0.0633 0.67997,0.29178 0.23189,0.22855 0.32336,0.4576 0.27442,0.68717 -1.5654,1.45338 -3.03335,2.84813 -4.40388,4.18427 -1.41715,1.3816 -2.87206,2.83637 -4.36472,4.36433 -0.22142,0.034 -0.44802,-0.0679 -0.6798,-0.30559 -0.23178,-0.23775 -0.32331,-0.4622 -0.27459,-0.67336 0.45731,-0.48221 0.77978,-0.86024 0.96742,-1.13409 0.18764,-0.27385 0.32079,-0.60825 0.39948,-1.00319 0.0787,-0.39493 -0.0105,-0.80812 -0.2674,-1.23955 -0.25694,-0.43143 -0.66719,-0.93616 -1.23073,-1.51422 l -11.19362,-11.48169 c -0.55444,-0.5687 -1.04632,-0.9893 -1.47564,-1.2618 -0.42929,-0.27247 -0.84235,-0.3744 -1.23918,-0.30579 -0.39679,0.0686 -0.73213,0.19098 -1.00601,0.36704 -0.27386,0.17609 -0.66229,0.49113 -1.1653,0.94511 -0.2214,0.034 -0.45027,-0.0702 -0.68661,-0.31258 -0.23631,-0.24239 -0.32557,-0.46451 -0.26777,-0.66637 0.38227,-0.37264 1.85617,-1.87321 4.42171,-4.50171 2.56557,-2.62846 4.03947,-4.12903 4.42172,-4.50172 z"
                 style="font-weight:bold;line-height:122%;-inkscape-font-specification:'Linux Libertine Bold';letter-spacing:-1.9px;fill:#cca32e;fill-opacity:1;stroke-width:10.3536;stroke-dasharray:none"
                 id="path3897"
                 inkscape:connector-curvature="0" />
              <path
                 d="m -107.64799,597.40597 3.4149,-1.93655 -1.14248,-1.77706 c -2.4887,0.46829 -4.86893,0.36238 -7.14068,-0.31774 -2.27175,-0.6801 -3.99855,-2.06218 -5.1804,-4.14624 -0.65514,-1.15527 -1.04497,-2.4498 -1.16948,-3.88357 -0.1245,-1.43374 0.0264,-2.87023 0.4526,-4.30948 0.42625,-1.4392 1.19075,-2.84945 2.2935,-4.23076 1.10276,-1.38126 2.4753,-2.53757 4.11762,-3.46895 3.36392,-1.90762 6.59194,-2.51076 9.68408,-1.80942 3.092112,0.70141 5.396095,2.3886 6.911953,5.06159 1.117595,1.97081 1.397158,4.13992 0.838688,6.50734 -0.558504,2.36746 -1.66933,4.48679 -3.332481,6.35801 l 0.870641,1.93121 3.29597,-1.86911 c 0.792826,-0.4496 1.310898,-1.08019 1.554218,-1.89178 0.243281,-0.81155 0.217817,-1.91229 -0.07639,-3.30221 0.532319,-0.30186 1.117561,-0.48406 1.755729,-0.54659 0.506369,1.20973 1.099929,3.41783 1.780684,6.62429 l -7.934112,4.49936 c -0.419091,0.23766 -0.711956,0.15675 -0.878597,-0.24272 l -2.417467,-5.25278 c 1.005393,-1.7377 1.428008,-3.3021 1.267845,-4.6932 -0.16019,-1.39106 -0.818353,-3.10596 -1.974491,-5.14473 -1.48374,-2.61636 -3.06962,-4.37025 -4.75764,-5.26166 -1.68804,-0.89135 -3.60805,-0.72685 -5.76006,0.4935 -1.15529,0.65518 -2.0194,1.41465 -2.59234,2.27841 -0.57294,0.86381 -0.84046,1.79764 -0.80257,2.80149 0.0379,1.0039 0.22598,2.00867 0.56427,3.01431 0.33829,1.00569 0.85106,2.11448 1.53833,3.32638 1.14331,2.01611 2.26036,3.41839 3.35116,4.20687 1.0908,0.78849 2.71884,1.25735 4.88413,1.40655 l 3.08006,4.87703 c 0.21195,0.37378 0.13671,0.66343 -0.22572,0.86896 l -8.07003,4.57644 c -2.40234,-2.23017 -3.99828,-3.86983 -4.78783,-4.91897 0.38122,-0.51555 0.84367,-0.92749 1.38733,-1.2358 1.04177,0.96598 1.97051,1.55448 2.78622,1.76549 0.81572,0.21101 1.61999,0.0917 2.41284,-0.35791 z"
                 style="font-weight:bold;line-height:122%;-inkscape-font-specification:'Linux Libertine Bold';letter-spacing:-1.9px;fill:#cca32e;fill-opacity:1;stroke-width:10.3536;stroke-dasharray:none"
                 id="path3899"
                 inkscape:connector-curvature="0" />
              <path
                 d="m -73.918499,559.78808 c 0.668881,-0.16974 1.293412,-0.38198 1.873594,-0.63673 0.100949,-0.0256 0.161042,-5.5e-4 0.180277,0.0751 0.0889,0.13867 0.344681,1.01411 0.767329,2.62632 0.422615,1.61227 0.733422,2.86332 0.932423,3.75315 -0.409325,0.34571 -0.948618,0.54976 -1.617882,0.61213 -1.045032,-1.68262 -1.797178,-2.71419 -2.25644,-3.09469 -0.836245,-0.70122 -1.879084,-0.89329 -3.128519,-0.5762 l -7.875304,1.99881 11.231086,7.8091 -0.02825,0.0475 0.134535,0.53007 -8.027238,11.16554 8.84021,-2.4049 c 0.643638,-0.16336 1.14366,-0.31042 1.500067,-0.44118 0.356373,-0.13075 0.776474,-0.32805 1.260306,-0.59191 0.483796,-0.26384 0.856986,-0.55334 1.119573,-0.86852 0.262549,-0.31515 0.497889,-0.73759 0.706022,-1.26732 0.208093,-0.5297 0.326629,-1.16094 0.355606,-1.89372 0.605196,-0.3148 1.209674,-0.39434 1.813438,-0.23861 0.370972,3.94938 0.536833,6.61417 0.497583,7.99437 l -5.376697,1.28403 -11.51006,2.92133 -4.713535,1.27693 c -0.151833,-0.0689 -0.270192,-0.27062 -0.355077,-0.60507 -0.08488,-0.33445 -0.08184,-0.5871 0.0091,-0.75796 0.657748,-0.63712 1.721953,-1.9752 3.192617,-4.01424 l 5.853725,-8.29659 -12.874815,-9.12485 c -0.642754,-0.46823 -1.25508,-0.81658 -1.836981,-1.04505 -0.132992,-0.10056 -0.239531,-0.30861 -0.319617,-0.62415 -0.08007,-0.31549 -0.08565,-0.54917 -0.01672,-0.70102 3.193226,-0.7567 5.04856,-1.20073 5.566008,-1.33209 z"
                 style="font-weight:bold;line-height:122%;-inkscape-font-specification:'Linux Libertine Bold';letter-spacing:-1.9px;fill:#cca32e;fill-opacity:1;stroke-width:10.3536;stroke-dasharray:none"
                 id="path3901"
                 inkscape:connector-curvature="0" />
              <path
                 d="m -51.877383,569.1921 c 1.380129,-0.0134 2.319293,-0.18199 2.817493,-0.50586 0.498169,-0.32384 0.768126,-1.01985 0.80987,-2.08803 0.128923,-0.13145 0.421247,-0.19939 0.876971,-0.20382 0.45569,-0.004 0.736256,0.058 0.841698,0.18716 -0.03657,1.602 -0.05144,2.75454 -0.0446,3.45762 0.0047,0.48176 0.04206,1.65333 0.112209,3.5147 -0.102917,0.13123 -0.38222,0.19904 -0.83791,0.20345 -0.455724,0.004 -0.74931,-0.0578 -0.880759,-0.18678 -0.06119,-0.93694 -0.354039,-1.59494 -0.878556,-1.974 -0.524548,-0.37903 -1.457356,-0.56205 -2.798424,-0.54906 l -3.242036,0.0314 0.08882,9.15972 c 0.0052,0.53383 0.172307,0.98471 0.50142,1.35263 0.329094,0.36792 0.714989,0.54973 1.157687,0.54544 l 4.042779,-0.0392 c 2.799329,-0.0272 4.664211,-1.75104 5.594649,-5.17168 0.688535,-0.16293 1.288096,-0.10364 1.798684,0.17788 -0.04819,0.40414 -0.126161,1.09177 -0.233915,2.06291 -0.107798,0.97115 -0.22635,1.83822 -0.355654,2.60123 -0.129348,0.76301 -0.269292,1.43822 -0.419832,2.02565 -2.396245,-0.0289 -4.238857,-0.037 -5.527841,-0.0245 l -9.39409,0.0911 c -2.825139,0.0534 -4.8951,0.0996 -6.209888,0.13835 -0.105172,-0.10316 -0.159431,-0.32725 -0.162776,-0.67229 -0.0033,-0.34503 0.04649,-0.57664 0.14952,-0.69484 1.496818,-0.0666 2.451689,-0.29396 2.864614,-0.6821 0.412919,-0.38814 0.611742,-1.36993 0.596469,-2.94538 l -0.155101,-15.99534 c -0.01553,-1.60146 -0.233483,-2.59223 -0.653851,-2.97231 -0.420374,-0.38004 -1.379474,-0.58885 -2.877303,-0.62643 -0.105424,-0.12917 -0.159715,-0.35652 -0.162871,-0.68205 -0.0032,-0.32548 0.04671,-0.55384 0.149615,-0.68508 l 6.172342,0.0183 11.79632,-0.11438 c 0.690053,-0.007 1.340559,-0.0651 1.951519,-0.17518 0.104141,-9.9e-4 0.163111,0.0375 0.176909,0.11547 0.02678,0.0779 0.06978,0.4844 0.129018,1.21951 0.05919,0.73517 0.125865,1.56789 0.200013,2.49818 0.07411,0.93034 0.139422,1.6231 0.195942,2.07828 -0.479496,0.23905 -1.051754,0.30971 -1.716775,0.21197 -0.496791,-1.54472 -1.067328,-2.6395 -1.711614,-3.28434 -0.64432,-0.6448 -1.663052,-0.96046 -3.0562,-0.94698 l -3.398278,0.033 c -0.455718,0.004 -0.841144,0.20675 -1.156279,0.60694 -0.315154,0.40023 -0.470264,0.85423 -0.465331,1.362 l 0.07329,7.55824 z"
                 style="font-weight:bold;line-height:122%;-inkscape-font-specification:'Linux Libertine Bold';letter-spacing:-1.9px;fill:#cca32e;fill-opacity:1;stroke-width:10.3536;stroke-dasharray:none"
                 id="path3903"
                 inkscape:connector-curvature="0" />
              <path
                 d="m -34.170482,564.10616 c 0.133896,-0.78289 0.1848,-1.42807 0.152714,-1.93556 -0.0321,-0.50744 -0.192582,-0.90146 -0.481438,-1.18206 -0.288872,-0.28056 -0.585038,-0.47983 -0.888499,-0.5978 -0.303475,-0.11793 -0.78671,-0.24682 -1.449706,-0.38666 -0.157736,-0.15905 -0.208065,-0.40544 -0.150986,-0.73916 0.05707,-0.33367 0.184227,-0.53649 0.381476,-0.60846 2.096064,0.41137 4.119517,0.78387 6.070365,1.11751 1.886653,0.32271 3.8868,0.63838 6.000448,0.94702 0.162104,0.13344 0.218385,0.36433 0.168844,0.69268 -0.04958,0.3284 -0.182688,0.54671 -0.399334,0.65494 -0.658964,-0.0863 -1.151148,-0.1242 -1.476552,-0.11383 -0.325435,0.0104 -0.670992,0.0999 -1.036671,0.26852 -0.365708,0.16865 -0.650677,0.48318 -0.854908,0.9436 -0.204259,0.46046 -0.374431,1.08855 -0.510516,1.88426 l -2.703316,15.80565 c -0.133915,0.7829 -0.18161,1.42863 -0.143088,1.93719 0.0385,0.50857 0.202189,0.90314 0.491064,1.18372 0.288852,0.28058 0.585018,0.47984 0.888499,0.5978 0.303456,0.11795 0.780274,0.24574 1.430454,0.38336 0.157717,0.15907 0.212352,0.39959 0.163904,0.72155 -0.04847,0.32196 -0.179939,0.53065 -0.394394,0.62607 -2.096083,-0.41135 -4.087449,-0.77836 -5.974106,-1.10104 -1.950844,-0.33367 -3.983078,-0.65483 -6.096707,-0.96349 -0.157732,-0.15908 -0.20861,-0.40226 -0.152633,-0.72954 0.05597,-0.32727 0.183683,-0.5333 0.383123,-0.61808 0.658946,0.0863 1.154338,0.12478 1.486178,0.11548 0.331834,-0.009 0.680599,-0.0983 1.046296,-0.26688 0.36569,-0.16862 0.64745,-0.48371 0.845283,-0.94524 0.197823,-0.46154 0.364786,-1.09017 0.50089,-1.88591 z"
                 style="font-weight:bold;line-height:122%;-inkscape-font-specification:'Linux Libertine Bold';letter-spacing:-1.9px;fill:#cca32e;fill-opacity:1;stroke-width:10.3536;stroke-dasharray:none"
                 id="path3905"
                 inkscape:connector-curvature="0" />
              <path
                 d="m -21.338948,581.14435 c -0.922621,-0.27784 -1.583991,-0.81358 -1.984114,-1.6072 -0.400136,-0.79362 -0.47442,-1.6081 -0.222853,-2.44344 0.2478,-0.82287 0.777262,-1.45213 1.588388,-1.88779 0.811111,-0.43565 1.640574,-0.52582 2.48839,-0.27051 0.822861,0.24781 1.462112,0.76668 1.917756,1.55661 0.45562,0.78995 0.552024,1.62129 0.289212,2.49402 -0.255328,0.84782 -0.780434,1.48519 -1.575319,1.91213 -0.794907,0.42695 -1.628726,0.509 -2.50146,0.24618 z"
                 style="font-weight:bold;line-height:122%;-inkscape-font-specification:'Linux Libertine Bold';letter-spacing:-1.9px;fill:#cca32e;fill-opacity:1;stroke-width:10.3536;stroke-dasharray:none"
                 id="path3907"
                 inkscape:connector-curvature="0" />
              <path
                 d="m -2.7030145,591.23582 c -0.7233534,1.42891 -0.9713679,2.41616 -0.7440445,2.96176 0.2272929,0.54558 1.0755508,1.22673 2.54477635,2.04345 0.0341114,0.16321 -0.0208637,0.38713 -0.16492535,0.67176 -0.1440971,0.28461 -0.2861285,0.44986 -0.4260948,0.49576 -2.3580087,-1.25204 -4.2340332,-2.2309 -5.628079,-2.93659 -1.8355205,-0.92917 -3.9325592,-1.96154 -6.2911232,-3.0971 -0.0459,-0.13999 0.0032,-0.35229 0.147283,-0.63691 0.144074,-0.28462 0.291986,-0.46149 0.443737,-0.53062 1.522129,0.71215 2.574708,0.99689 3.157741,0.8542 0.5830147,-0.14269 1.2361953,-0.92848 1.9595436,-2.35739 l 2.4699349,-4.87921 c 0.32343,-0.63894 0.5150613,-1.1184 0.5748943,-1.43838 0.059805,-0.31997 0.071082,-0.83235 0.03383,-1.53715 l -0.6667905,-9.96965 c -0.075411,-1.23487 -0.2603625,-2.10198 -0.5548536,-2.60134 -0.2945168,-0.49932 -0.8278583,-0.98092 -1.600026,-1.44481 -0.057375,-0.17495 -0.012547,-0.40766 0.1344845,-0.69811 0.1470083,-0.29041 0.2963908,-0.47018 0.4481477,-0.53933 1.4053738,0.76983 3.0839068,1.64872 5.035604,2.63667 1.04552615,0.52929 2.53266513,1.25292 4.4614214,2.17088 0.057342,0.175 0.013984,0.4048 -0.1300739,0.6894 -0.1441006,0.28464 -0.3065704,0.46144 -0.4874098,0.5304 -0.9761498,-0.43574 -1.62055052,-0.53938 -1.93320414,-0.31094 -0.31269123,0.22848 -0.42171282,0.7826 -0.32706509,1.66235 l 0.40351638,8.45724 c 0.0373913,0.67568 0.28694323,0.84579 0.74865662,0.51033 l 7.17884483,-5.05675 c 0.5550374,-0.37574 0.7420053,-0.79553 0.5609042,-1.25939 -0.1811558,-0.46382 -0.6781757,-0.93068 -1.4910611,-1.40058 -0.057389,-0.17497 -0.012561,-0.40767 0.1344845,-0.69812 0.1469938,-0.29041 0.3079934,-0.46431 0.4829992,-0.52169 1.8816621,1.01094 3.188446,1.70164 3.920357,2.07212 0.789935,0.39991 1.911134,0.93829 3.3636,1.61514 0.05733,0.175 0.01397,0.40479 -0.130074,0.6894 -0.144113,0.28463 -0.306583,0.46144 -0.48741,0.53041 -0.900867,-0.35385 -1.608945,-0.53352 -2.124237,-0.539 -0.515353,-0.005 -1.12936,0.22006 -1.842021,0.67654 l -8.4466515,5.3125 c -0.7477068,0.46797 -1.4480059,1.36127 -2.10089952,2.67988 z"
                 style="font-weight:bold;line-height:122%;-inkscape-font-specification:'Linux Libertine Bold';letter-spacing:-1.9px;fill:#cca32e;fill-opacity:1;stroke-width:10.3536;stroke-dasharray:none"
                 id="path3909"
                 inkscape:connector-curvature="0" />
              <path
                 d="m 24.986192,613.16519 10.804037,-12.79925 -0.07067,-0.0674 -21.113863,9.11987 c -0.355721,0.14655 -0.656284,0.0938 -0.90169,-0.15825 -0.292103,-0.2786 -0.368433,-0.58532 -0.228991,-0.92016 l 7.919113,-19.70733 -0.113068,-0.10784 -11.11594,10.12661 c -0.9381125,0.83265 -1.4759696,1.55222 -1.6135727,2.15871 -0.1376149,0.60649 0.2004832,1.3698 1.0142955,2.28994 0.00348,0.14727 -0.1161007,0.3481 -0.358736,0.60251 -0.2426484,0.2544 -0.4376056,0.38334 -0.5848721,0.38683 -1.123006,-1.14306 -2.2027342,-2.20886 -3.239188,-3.1974 -0.4993864,-0.4763 -1.3512363,-1.25278 -2.5555522,-2.32944 -0.00349,-0.14728 0.1138469,-0.34576 0.3519959,-0.59545 0.238148,-0.24969 0.4353518,-0.38099 0.5916123,-0.3939 0.8543819,0.68893 1.5981497,0.98446 2.2313058,0.88659 0.6331492,-0.0979 1.4326939,-0.55885 2.3986364,-1.38295 L 20.937215,586.25356 c 1.109706,-0.97484 1.666843,-1.65803 1.671413,-2.04956 0.0045,-0.39151 -0.47504,-1.10082 -1.438713,-2.12793 -0.0044,-0.18408 0.103426,-0.39615 0.323403,-0.63622 0.219938,-0.24003 0.426673,-0.35774 0.620206,-0.35313 l 5.882154,5.71818 -7.08056,17.78109 0.141335,0.1348 17.765496,-7.59012 5.862794,5.4838 c 0.0043,0.18408 -0.103596,0.39155 -0.323729,0.6224 -0.220217,0.23085 -0.426843,0.35316 -0.619879,0.36694 -1.005617,-0.85113 -1.735836,-1.25519 -2.19066,-1.21219 -0.454901,0.043 -1.040494,0.49661 -1.756782,1.36086 L 29.05011,616.77133 c -0.403123,0.47921 -0.705336,0.84324 -0.906641,1.09208 -0.201356,0.2488 -0.372173,0.52223 -0.512451,0.82028 -0.140328,0.29801 -0.213448,0.51616 -0.219361,0.65447 -0.006,0.13827 0.04945,0.33957 0.16625,0.60391 0.116745,0.26429 0.260258,0.49114 0.430539,0.68054 0.17023,0.18935 0.439311,0.46848 0.807244,0.8374 0.0223,0.16522 -0.08785,0.37505 -0.330469,0.62947 -0.242668,0.25438 -0.447047,0.37434 -0.613139,0.35987 -1.236093,-1.25092 -2.26871,-2.27178 -3.097853,-3.0626 -1.413372,-1.34803 -3.042564,-2.86592 -4.887582,-4.55366 -0.02235,-0.16527 0.08556,-0.37273 0.323729,-0.62241 0.238131,-0.24971 0.444757,-0.37202 0.619879,-0.36694 0.404271,0.3496 0.684041,0.59394 0.839311,0.73303 0.155231,0.13906 0.365492,0.26763 0.630781,0.3857 0.26525,0.11804 0.452785,0.16195 0.562606,0.13174 0.109781,-0.0302 0.289447,-0.12429 0.538999,-0.28214 0.24951,-0.15788 0.477405,-0.35437 0.683686,-0.58948 0.206238,-0.23514 0.506422,-0.5876 0.900554,-1.0574 z"
                 style="font-weight:bold;line-height:122%;-inkscape-font-specification:'Linux Libertine Bold';letter-spacing:-1.9px;fill:#cca32e;fill-opacity:1;stroke-width:10.3536;stroke-dasharray:none"
                 id="path3911"
                 inkscape:connector-curvature="0" />
              <path
                 d="m 42.376953,626.3201 2.869635,5.35363 6.807975,-7.34994 -0.12918,-0.241 -9.563457,1.09304 c -0.08733,0.002 -0.156596,0.0248 -0.20781,0.0671 -0.05125,0.0422 -0.08485,0.0898 -0.100806,0.14267 -0.01599,0.0529 -0.01392,0.12564 0.0062,0.21828 0.02009,0.0926 0.0565,0.195 0.109212,0.3071 0.05269,0.1121 0.122096,0.24848 0.208231,0.40915 z m -9.234745,0.0526 c -0.241832,0.10007 -0.463988,0.17483 -0.666468,0.22428 -0.202492,0.0494 -0.317849,0.19252 -0.346072,0.42926 -0.02823,0.23673 -0.04756,0.42806 -0.05797,0.574 -0.01042,0.14592 0.03677,0.37177 0.14158,0.67755 0.1048,0.30577 0.192987,0.53919 0.26456,0.70028 0.07156,0.16107 0.175839,0.39695 0.312829,0.70764 -0.0426,0.14101 -0.218831,0.29457 -0.528682,0.46066 -0.309861,0.16608 -0.535299,0.22783 -0.676315,0.18524 -0.889114,-1.76899 -1.702753,-3.34205 -2.440921,-4.71918 -0.252209,-0.47053 -0.868773,-1.56567 -1.849692,-3.28544 0.0303,-0.16397 0.197502,-0.32747 0.50162,-0.49048 0.304118,-0.16301 0.538576,-0.21482 0.703377,-0.15542 0.371928,0.58363 0.696068,1.02298 0.972422,1.31806 0.276349,0.29507 0.69411,0.54389 1.253284,0.74646 0.559167,0.20257 1.26833,0.25088 2.12749,0.14492 l 22.137362,-2.0269 c 0.467479,0.87218 1.684753,1.8891 3.651825,3.05074 L 42.3612,642.99297 c -0.294262,0.30544 -0.505191,0.62163 -0.632788,0.94859 -0.127625,0.32691 -0.218055,0.57852 -0.271288,0.75482 -0.05326,0.17625 -0.01855,0.47528 0.104124,0.89707 0.12265,0.42175 0.19936,0.66133 0.230132,0.71873 0.03074,0.0574 0.155424,0.34509 0.374045,0.86319 -0.04261,0.141 -0.21884,0.29455 -0.528682,0.46067 -0.30987,0.16606 -0.535308,0.22781 -0.676315,0.18523 -0.889123,-1.769 -1.708914,-3.35354 -2.459375,-4.75361 -1.224142,-2.28377 -2.326667,-4.28553 -3.307577,-6.00528 0.03029,-0.16399 0.197493,-0.32748 0.501619,-0.49048 0.30411,-0.16303 0.538568,-0.21484 0.703377,-0.15542 0.07381,0.1377 0.177968,0.31824 0.312482,0.54163 0.134495,0.22335 0.241318,0.39508 0.32047,0.51518 0.07913,0.12007 0.172114,0.26598 0.278947,0.43773 0.106813,0.17171 0.202044,0.29425 0.285694,0.36762 0.08363,0.0733 0.174958,0.16104 0.273987,0.2631 0.09901,0.10203 0.198324,0.16329 0.297949,0.18378 0.0996,0.0204 0.207411,0.0218 0.323423,0.004 0.115991,-0.0179 0.228296,-0.0633 0.336918,-0.13627 0.108598,-0.073 0.230934,-0.17552 0.367006,-0.30753 l 4.688435,-5.06149 -3.589351,-6.69634 c -0.227615,-0.42462 -0.421567,-0.69 -0.581856,-0.79612 -0.160314,-0.10614 -0.388645,-0.14625 -0.684995,-0.12036 z"
                 style="font-weight:bold;line-height:122%;-inkscape-font-specification:'Linux Libertine Bold';letter-spacing:-1.9px;fill:#cca32e;fill-opacity:1;stroke-width:10.3536;stroke-dasharray:none"
                 id="path3913"
                 inkscape:connector-curvature="0" />
              <path
                 d="m 70.246361,661.52936 c 0.152619,0.673 0.34886,1.30274 0.588725,1.88923 0.02301,0.10157 -0.0036,0.161 -0.07972,0.1783 -0.140889,0.0853 -1.022568,0.3187 -2.645041,0.70008 -1.622528,0.38134 -2.881098,0.66012 -3.775714,0.83636 -0.335159,-0.41801 -0.525378,-0.96234 -0.570657,-1.63297 1.70874,-1.00177 2.759158,-1.72735 3.151257,-2.17675 0.722328,-0.81809 0.940938,-1.85568 0.655829,-3.1128 l -1.797225,-7.92374 -8.093103,11.02819 -0.04673,-0.0294 -0.533329,0.12096 -10.957108,-8.3095 2.178578,8.89869 c 0.14688,0.6476 0.281134,1.15121 0.402762,1.51084 0.121612,0.35959 0.308131,0.78459 0.559559,1.275 0.251409,0.49037 0.5313,0.87082 0.839672,1.14136 0.308353,0.27051 0.724651,0.51655 1.248895,0.73813 0.524222,0.22154 1.152234,0.35614 1.884037,0.40381 0.299255,0.61303 0.363342,1.21934 0.192261,1.81893 -3.957564,0.27009 -6.625714,0.36791 -8.004459,0.29346 l -1.146442,-5.40771 -2.626713,-11.58085 -1.156253,-4.74458 c 0.07279,-0.15002 0.277429,-0.2632 0.613935,-0.33952 0.336503,-0.0763 0.588997,-0.0668 0.757481,0.0285 0.620129,0.67378 1.93062,1.77178 3.931477,3.29399 l 8.144536,6.0635 9.450366,-12.63782 c 0.48447,-0.6306 0.848329,-1.23384 1.091579,-1.80972 0.103917,-0.13038 0.314616,-0.23158 0.632098,-0.30359 0.317433,-0.072 0.551173,-0.0716 0.701223,10e-4 0.674983,3.2115 1.07153,5.07756 1.189644,5.59819 z"
                 style="font-weight:bold;line-height:122%;-inkscape-font-specification:'Linux Libertine Bold';letter-spacing:-1.9px;fill:#cca32e;fill-opacity:1;stroke-width:10.3536;stroke-dasharray:none"
                 id="path3915"
                 inkscape:connector-curvature="0" />
              <path
                 d="m 52.681374,676.52972 c -0.04008,-0.96271 0.249144,-1.76319 0.867674,-2.40144 0.618513,-0.63826 1.363594,-0.97553 2.235244,-1.01181 0.858621,-0.0357 1.626713,0.25809 2.304279,0.8815 0.677542,0.62339 1.03473,1.37742 1.071567,2.26207 0.03573,0.85863 -0.244823,1.63268 -0.841651,2.32217 -0.596854,0.68948 -1.350609,1.05317 -2.261267,1.09108 -0.884661,0.0368 -1.658987,-0.25024 -2.322981,-0.86116 -0.664012,-0.61094 -1.014966,-1.37174 -1.052865,-2.28241 z"
                 style="font-weight:bold;line-height:122%;-inkscape-font-specification:'Linux Libertine Bold';letter-spacing:-1.9px;fill:#cca32e;fill-opacity:1;stroke-width:10.3536;stroke-dasharray:none"
                 id="path3917"
                 inkscape:connector-curvature="0" />
            </g>
            <g
               transform="matrix(0.20127314,0,0,0.20127314,-940.67045,536.60474)"
               style="display:inline;stroke-width:17.3893;stroke-miterlimit:4;stroke-dasharray:none"
               id="g2984">
              <g
                 style="stroke-width:17.3893;stroke-miterlimit:4;stroke-dasharray:none"
                 id="g7979">
                <rect
                   width="600"
                   height="660"
                   x="0"
                   y="-7.1054274e-15"
                   style="fill:none;stroke:none"
                   id="rect7092" />
              </g>
            </g>
            <g
               transform="translate(-0.40596507)"
               id="g11167"
               style="stroke-width:6.73303;stroke-dasharray:none">
              <path
                 inkscape:connector-curvature="0"
                 sodipodi:nodetypes="cccccc"
                 d="m -880.28852,669.39428 c 0,0 -60.08003,-22.60708 -60.08003,-80.06082 0,-57.45375 0,-52.03953 0,-52.03953 h 120.16007 v 52.03953 c 0,57.45374 -60.08004,80.06082 -60.08004,80.06082 z"
                 style="fill:#ffffff;fill-opacity:1;fill-rule:evenodd;stroke:#ff0000;stroke-width:6.73303;stroke-linecap:butt;stroke-linejoin:miter;stroke-miterlimit:4;stroke-dasharray:none;stroke-opacity:1"
                 id="path1411"
                 inkscape:export-xdpi="144"
                 inkscape:export-ydpi="144" />
              <path
                 id="path3107"
                 style="fill:#ff0000;fill-opacity:1;fill-rule:evenodd;stroke:#ff0000;stroke-width:6.73303;stroke-linecap:butt;stroke-linejoin:miter;stroke-miterlimit:4;stroke-dasharray:none;stroke-opacity:1"
                 d="m -893.99943,537.26415 v 42.46603 l -13.43432,-0.0926 -32.89045,-0.22683 c 0.10632,10.40307 -0.34737,18.45042 2.09712,27.52465 l 44.22765,0.11047 v 55.57376 c 7.82553,4.59776 13.49159,6.74265 13.49159,6.74265 0,0 5.66631,-2.14509 13.49159,-6.74265 l -0.12583,-55.53439 45.00884,-0.27296 c 2.37068,-10.80498 1.96937,-17.94173 1.95569,-27.51162 l -46.8387,0.3407 c -0.12717,-13.59292 0,-27.4254 0,-42.37716 h -26.98318 z"
                 sodipodi:nodetypes="ccccccccccccccc"
                 inkscape:export-xdpi="90"
                 inkscape:export-ydpi="90"
                 inkscape:connector-curvature="0" />
            </g>
            <rect
               width="120.76389"
               height="132.84027"
               x="-940.65887"
               y="536.82727"
               style="fill:none;stroke:none"
               id="rect3922" />
            <path
               inkscape:connector-curvature="0"
               style="fill:#ffd42a;fill-opacity:1;fill-rule:evenodd;stroke:#ffd42a;stroke-width:5;stroke-linecap:butt;stroke-linejoin:miter;stroke-miterlimit:4;stroke-dasharray:none;stroke-opacity:1"
               d="m -872.9547,146.94578 c 0,-6.7319 -3.58222,-12.18918 -8.00108,-12.18918 -4.41887,0 -8.00109,5.45728 -8.00109,12.18918 0,6.73189 3.58222,12.18917 8.00109,12.18917 4.41886,0 8.00108,-5.45728 8.00108,-12.18917 z"
               class="Silber Rand2"
               id="mitra2-1" />
            <path
               inkscape:connector-curvature="0"
               sodipodi:nodetypes="cscccsscccsscccsc"
               style="fill:#ffd42a;fill-opacity:1;fill-rule:evenodd;stroke:#ffd42a;stroke-width:9.42624;stroke-linecap:butt;stroke-linejoin:miter;stroke-miterlimit:4;stroke-dasharray:none;stroke-opacity:1"
               d="m -881.88346,290.70525 c 8.00108,0 16.8231,-0.45085 24.6689,-1.32897 9.33219,-1.04449 12.64951,-2.46713 19.76141,-4.77811 l 8.77698,-20.43317 c -4.0308,3.5429 -19.39835,4.62836 -21.678,5.15657 -6.64466,0.3284 -17.5365,1.873 -19.46689,-4.74472 -1.93093,-6.61769 -1.35111,-42.25983 -1.35111,-61.86612 0,-19.60679 0,-36.85133 0,-36.85133 l -9.6013,-9.60554 -9.6013,9.14187 c 0,0 0,17.70821 0,37.315 0,19.60629 0.57981,55.24843 -1.35112,61.86612 -1.93038,6.61772 -11.04519,4.83936 -19.66702,4.91888 -9.59901,-0.26877 -11.35807,-1.32823 -20.35248,-2.15995 l 7.53724,16.92608 c 9.10987,3.64293 11.87555,4.75393 19.20977,5.35442 7.86849,0.64423 15.11384,1.08897 23.11492,1.08897 z"
               class="Hellblau"
               id="mitra5-1" />
            <path
               inkscape:connector-curvature="0"
               sodipodi:nodetypes="csccsccsc"
               id="mitra3-1"
               d="m -880.94636,156.09052 c -12.80172,12.18917 -25.59966,24.389 -35.20096,40.38731 -9.60129,15.99828 -15.99974,35.8079 -22.40061,55.61531 4.70013,10.62641 9.7073,21.22764 14.27166,31.85374 0.93756,2.03053 18.40333,6.788 42.40555,6.788 24.00221,0 43.84207,-4.55657 44.51176,-6.788 l 14.01417,-31.85374 c -6.40086,-19.80741 -12.79931,-39.61703 -22.40061,-55.61531 -9.60129,-15.9983 -22.39923,-28.19814 -35.20096,-40.38731 z"
               style="fill:none;stroke:#ffd700;stroke-width:5;stroke-linecap:butt;stroke-linejoin:miter;stroke-miterlimit:4;stroke-dasharray:none;stroke-opacity:1" />
          </g>
        </g>
        <text
           xml:space="preserve"
           style="font-size:407.212px;line-height:1.25;font-family:sans-serif;letter-spacing:67.1204px;fill:#e0c161;fill-opacity:1;stroke-width:30.541"
           x="-1309.1097"
           y="2190.6765"
           id="text6"
           transform="scale(1.0471712,0.95495369)"><tspan
             sodipodi:role="line"
             id="tspan6"
             style="font-style:normal;font-variant:normal;font-weight:bold;font-stretch:normal;font-family:System-ui;-inkscape-font-specification:'System-ui Bold';letter-spacing:67.1204px;fill:#ffd42a;fill-opacity:1;stroke-width:30.541"
             x="-1309.1097"
             y="2190.6765">EEM</tspan></text>
      </g>
    </g>
  </g>
</svg>
